<?xml version="1.0" encoding="utf-8"?>
<!-- Generator: Adobe Illustrator 23.0.6, SVG Export Plug-In . SVG Version: 6.00 Build 0)  -->
<svg version="1.1" id="Layer_1" xmlns="http://www.w3.org/2000/svg" xmlns:xlink="http://www.w3.org/1999/xlink" x="0px" y="0px"
	 viewBox="0 0 500 500" style="enable-background:new 0 0 500 500;" xml:space="preserve">
<style type="text/css">
	.st0{fill:#3F3E3E;}
</style>
<g>
	<g>
		<g>
			<path class="st0" d="M469.57,57.29H29.86c-13.49,0-24.43,10.94-24.43,24.43v325.71c0,13.49,10.94,24.43,24.43,24.43h439.71
				c13.49,0,24.43-10.94,24.43-24.43V81.71C494,68.22,483.06,57.29,469.57,57.29z M477.71,407.43c0,4.5-3.65,8.14-8.14,8.14H29.86
				c-4.5,0-8.14-3.65-8.14-8.14V81.71c0-4.5,3.65-8.14,8.14-8.14h439.71c4.5,0,8.14,3.65,8.14,8.14L477.71,407.43L477.71,407.43z"/>
			<path class="st0" d="M453.99,89.89c-2.15-0.19-4.29,0.49-5.94,1.88L260.19,249.57c-6.06,5.09-14.9,5.09-20.96,0L51.38,91.76
				c-2.23-1.87-5.29-2.41-8.02-1.42c-2.73,0.99-4.73,3.37-5.24,6.24s0.56,5.78,2.78,7.65l187.86,157.8
				c12.11,10.19,29.8,10.19,41.9,0l187.85-157.8c1.65-1.39,2.69-3.38,2.88-5.53c0.19-2.15-0.49-4.29-1.88-5.94
				C458.13,91.11,456.15,90.08,453.99,89.89z"/>
			<path class="st0" d="M162.04,260.92c-2.88-0.64-5.89,0.32-7.85,2.53l-114,122.14c-2.06,2.11-2.82,5.18-1.98,8.01
				c0.84,2.83,3.15,4.98,6.03,5.63c2.88,0.64,5.89-0.32,7.85-2.53l114-122.14c2.06-2.11,2.82-5.18,1.98-8.01
				C167.23,263.71,164.93,261.56,162.04,260.92z"/>
			<path class="st0" d="M345.24,263.45c-1.96-2.2-4.97-3.17-7.85-2.53c-2.88,0.64-5.19,2.8-6.03,5.63c-0.84,2.83-0.08,5.9,1.98,8.01
				l114,122.14c3.09,3.17,8.15,3.28,11.38,0.27c3.24-3.02,3.47-8.07,0.52-11.37L345.24,263.45z"/>
		</g>
	</g>
</g>
</svg>
