<svg id="Capa_1" data-name="Capa 1" xmlns="http://www.w3.org/2000/svg" viewBox="0 0 476.3 476.3"><defs><style>.cls-1{fill:#d9c7be;}.cls-2{opacity:0.86;}.cls-2,.cls-4{isolation:isolate;}.cls-3{fill:#fff;}.cls-5{fill:#7e5f51;}</style></defs><title>logo24</title><circle class="cls-1" cx="238.15" cy="238.15" r="238.15"/><g class="cls-2"><path class="cls-3" d="M209.69,443.64,211,406.81q0-107-19.12-168.84T140.1,176.1q-33.21,0-70.13,65L77.67,201q48.15-65,89.65-65,92.31,0,92.31,237.18v14.91l21.74-26.83Q378.11,242,378.11,187.79q0-25.48-17.49-45.26L417.43,136q13,19.78,13,36.05,0,22.77-18.19,51.24t-79,100.56l-95,113Z" transform="translate(-17.89 -17.89)"/></g><g class="cls-4"><path class="cls-5" d="M173.59,198.75h66.62L355.53,318.22V246.73q0-13.06-4.46-22.86A32.73,32.73,0,0,0,338.19,209a32.13,32.13,0,0,0-9.09-4,74.62,74.62,0,0,0-12.77-1.78v-4.4h82.19v4.4h-1.67q-17.93,0-27.31,11.4t-9.38,33.13V366.32h-3.92L213,219.18v98.57q0,14.37,3.44,23a27.69,27.69,0,0,0,11.16,13.48,38,38,0,0,0,15.32,4.86,120.21,120.21,0,0,0,14.25,1.19v4.4H170.62v-4.4q13.29-.7,21.67-4.69a25.77,25.77,0,0,0,12.35-11.82q4-7.83,4-19.47V230.46a26.89,26.89,0,0,0-3.86-14.73,24.82,24.82,0,0,0-11.22-9.32q-7.36-3.27-17.81-3.26h-2.14Z" transform="translate(-17.89 -17.89)"/></g></svg>