<?xml version="1.0" encoding="utf-8"?>
<!-- Generator: Adobe Illustrator 23.0.6, SVG Export Plug-In . SVG Version: 6.00 Build 0)  -->
<svg version="1.1" id="Layer_1" xmlns="http://www.w3.org/2000/svg" xmlns:xlink="http://www.w3.org/1999/xlink" x="0px" y="0px"
	 viewBox="0 0 94 131" style="enable-background:new 0 0 94 131;" xml:space="preserve">
<style type="text/css">
	.st0{fill:#D9C7BE;}
	.st1{opacity:0.86;enable-background:new    ;}
	.st2{fill:#FFFFFF;}
	.st3{enable-background:new    ;}
	.st4{fill:#7E5F51;}
</style>
<title>logo</title>
<circle class="st0" cx="47" cy="63" r="47"/>
<g class="st1">
	<path class="st2" d="M36.1,96.7l0.3-7.3c0-14.1-1.3-25.2-3.8-33.3c-2.5-8.1-5.9-12.2-10.2-12.2c-4.4,0-9,4.3-13.8,12.8l1.5-7.9
		C16.4,40.3,22.3,36,27.7,36C39.9,36,46,51.6,46,82.8v2.9l4.3-5.3C63,64.8,69.3,53.3,69.3,46.2c0-3.4-1.2-6.3-3.5-8.9L77.1,36
		c1.7,2.6,2.6,5,2.6,7.1c0,3-1.2,6.4-3.6,10.1c-2.4,3.7-7.6,10.4-15.6,19.8L41.7,95.4L36.1,96.7z"/>
</g>
<g class="st3">
	<path class="st4" d="M29,48.4h13.1L64.9,72V57.8c0-1.7-0.3-3.2-0.9-4.5s-1.4-2.3-2.5-2.9c-0.6-0.4-1.2-0.6-1.8-0.8
		s-1.4-0.3-2.5-0.4v-0.9h16.2v0.9H73c-2.4,0-4.2,0.8-5.4,2.2s-1.9,3.7-1.9,6.5v23.4H65l-28.3-29v19.5c0,1.9,0.2,3.4,0.7,4.5
		s1.2,2,2.2,2.7c0.8,0.5,1.8,0.8,3,1c0.7,0.1,1.6,0.2,2.8,0.2v0.9H28.4v-0.9c1.8-0.1,3.2-0.4,4.3-0.9s1.9-1.3,2.4-2.3
		s0.8-2.3,0.8-3.8V54.6c0-1.1-0.3-2.1-0.8-2.9s-1.2-1.4-2.2-1.8s-2.1-0.6-3.5-0.6H29V48.4z"/>
</g>
</svg>
