<svg id="Layer_1" data-name="Layer 1" xmlns="http://www.w3.org/2000/svg" viewBox="0 0 94 94"><defs><style>.cls-1{fill:#d9c7be;}.cls-2{opacity:0.86;}.cls-2,.cls-4{isolation:isolate;}.cls-3{fill:#fff;}.cls-5{fill:#7e5f51;}</style></defs><title>logo 1.16.42 AM</title><circle class="cls-1" cx="47" cy="47" r="47"/><g class="cls-2"><path class="cls-3" d="M36.09,96.71l.27-7.27q0-21.1-3.78-33.32T22.36,43.91q-6.56,0-13.84,12.82L10,48.82Q19.54,36,27.73,36,46,36,46,82.8v2.94l4.29-5.29Q69.33,56.92,69.33,46.21a13.1,13.1,0,0,0-3.45-8.93L77.09,36a13.27,13.27,0,0,1,2.57,7.11q0,4.5-3.59,10.12T60.49,73.06L41.73,95.37Z" transform="translate(0 -16)"/></g><g class="cls-4"><path class="cls-5" d="M29,48.38H42.12L64.88,72V57.85A10.94,10.94,0,0,0,64,53.33a6.57,6.57,0,0,0-2.55-2.94,6.25,6.25,0,0,0-1.79-.79,13.68,13.68,0,0,0-2.52-.35v-.87H73.36v.87H73a6.58,6.58,0,0,0-5.39,2.25C66.41,53,65.79,55.17,65.79,58V81.45H65l-28.27-29V71.86a12.58,12.58,0,0,0,.68,4.54,5.48,5.48,0,0,0,2.2,2.66,7.51,7.51,0,0,0,3,1,22.3,22.3,0,0,0,2.81.23v.87H28.38v-.87a11.48,11.48,0,0,0,4.28-.92A5.16,5.16,0,0,0,35.1,77a8.55,8.55,0,0,0,.78-3.85V54.64a5.3,5.3,0,0,0-.76-2.91,4.87,4.87,0,0,0-2.21-1.84,8.65,8.65,0,0,0-3.52-.64H29Z" transform="translate(0 -16)"/></g></svg>