<?xml version="1.0" encoding="utf-8"?>
<!-- Generator: Adobe Illustrator 23.0.6, SVG Export Plug-In . SVG Version: 6.00 Build 0)  -->
<svg version="1.1" id="Layer_1" xmlns="http://www.w3.org/2000/svg" xmlns:xlink="http://www.w3.org/1999/xlink" x="0px" y="0px"
	 viewBox="0 0 49.8 49.8" style="enable-background:new 0 0 49.8 49.8;" xml:space="preserve">
<style type="text/css">
	.st0{fill:#26A682;}
</style>
<path class="st0" d="M49.8,24.9c0,13.8-11.1,24.9-24.9,24.9S0,38.6,0,24.9S11.1,0,24.9,0C38.6,0,49.8,11.1,49.8,24.9
	C49.8,24.9,49.8,24.9,49.8,24.9z M35.4,22l-7.3,7.6V11.2c0-1.3-1.1-2.4-2.4-2.4c0,0,0,0,0,0h-1.6c-1.3,0-2.4,1.1-2.4,2.4
	c0,0,0,0,0,0v18.3L14.4,22c-0.9-1-2.4-1-3.4-0.1c0,0,0,0,0,0l-1.1,1.1c-0.9,0.9-0.9,2.5,0,3.4c0,0,0,0,0,0l13.3,13.3
	c0.9,0.9,2.5,0.9,3.4,0c0,0,0,0,0,0l13.3-13.3c0.9-0.9,0.9-2.5,0-3.4c0,0,0,0,0,0L38.8,22C37.9,21,36.4,21,35.4,22
	C35.4,22,35.4,22,35.4,22L35.4,22z"/>
</svg>
