<?xml version="1.0" encoding="utf-8"?>
<!-- Generator: Adobe Illustrator 23.0.6, SVG Export Plug-In . SVG Version: 6.00 Build 0)  -->
<svg version="1.1" id="Layer_1" xmlns="http://www.w3.org/2000/svg" xmlns:xlink="http://www.w3.org/1999/xlink" x="0px" y="0px"
	 viewBox="0 0 1920 1080" style="enable-background:new 0 0 1920 1080;" xml:space="preserve">
<style type="text/css">
	.st0{fill:#935548;}
	.st1{fill:#D8CEC7;}
	.st2{fill:#FDF9F8;stroke:#313131;stroke-linecap:round;stroke-miterlimit:10;}
	.st3{fill:none;stroke:#707070;}
	.st4{fill:none;}
	.st5{fill:#FCE6D7;}
	.st6{fill:#F9F7F4;}
	.st7{opacity:0.74;fill:#E0CCC0;}
	.st8{fill:#C79083;}
	.st9{opacity:0.74;fill:#935548;}
	.st10{opacity:0.28;}
	.st11{opacity:0.35;}
	.st12{opacity:0.14;}
	.st13{fill:#707070;stroke:#82653F;stroke-width:1.2154;}
	.st14{opacity:0.24;}
	.st15{fill:#CEBBAE;}
	.st16{fill:none;stroke:#363636;stroke-width:2.1729;stroke-linecap:round;stroke-miterlimit:10;}
	.st17{fill:none;stroke:#363636;stroke-width:2.1729;stroke-linecap:round;stroke-linejoin:round;}
	.st18{fill:none;stroke:#F9F7F4;stroke-miterlimit:10;}
	.st19{font-family:'Consolas';}
	.st20{font-size:45px;}
</style>
<rect x="1178.2" y="199.92" class="st0" width="384" height="384"/>
<circle class="st1" cx="1366" cy="379" r="101"/>
<g id="Rectangle_35_1_" transform="translate(768 701)">
	<rect x="-705" y="-136" class="st2" width="384" height="384"/>
	<polygon class="st2" points="-704.5,-135.44 -321.5,-135.44 -321.5,247.44 -704.5,247.44 -704.5,-34.33 	"/>
</g>
<path id="Path_256" class="st3" d="M220.09,362.2"/>
<path class="st4" d="M911.58,386.15c0.17,0.1,0.33,0.2,0.5,0.3v-42.73c-0.17-0.04-0.33-0.09-0.5-0.13V386.15z"/>
<path class="st4" d="M528.58,277.04v-90.58h146.84c-0.06-0.17-0.11-0.33-0.16-0.5H528.08v144.07c0.17,0.01,0.33,0.02,0.5,0.03
	V277.04z"/>
<path class="st5" d="M911.58,529.46h-33.33c0.15,0.16,0.3,0.33,0.44,0.5h33.39V386.45c-0.17-0.1-0.33-0.2-0.5-0.3V529.46z"/>
<path class="st5" d="M528.58,450.92V330.07c-0.17-0.01-0.33-0.02-0.5-0.03v120.88C528.24,450.92,528.41,450.92,528.58,450.92z"/>
<path class="st6" d="M635,320c52-21,150,35,212,42c22.18,2.5,44.74,12.43,64.58,24.15v-42.56c-21.98-5.6-53.4-14.37-98.08-28.09
	c-93.99-28.86-127.17-96.05-138.08-129.04H528.58v90.58v53.03C559.98,332.25,604.41,332.35,635,320z"/>
<path class="st5" d="M746,466c55,30,96,49,109,44c3.47-1.33,12.07,6.88,23.25,19.46h33.33V386.15
	C891.74,374.43,869.18,364.5,847,362c-62-7-160-63-212-42c-30.59,12.35-75.02,12.25-106.42,10.07v120.86
	c14.33,0.38,33.88,4.33,60.42,15.08C673,500,691,436,746,466z"/>
<path class="st7" d="M812.92,316.04c44.68,13.72,76.1,22.48,98.08,28.09V187H674.84C685.75,219.99,718.94,287.18,812.92,316.04z"/>
<path class="st8" d="M528.58,529.46v-78.54c-0.17,0-0.33-0.01-0.5-0.01v79.05h350.61c-0.15-0.17-0.3-0.34-0.44-0.5H528.58z"/>
<path class="st9" d="M878.25,529.46c-11.18-12.58-19.78-20.8-23.25-19.46c-13,5-54-14-109-44s-73,34-157,0
	c-26.54-10.74-46.09-14.69-60.42-15.08v78.54H878.25z"/>
<g class="st10">
	<path class="st5" d="M1246.46,285.86c3.73,7.65,6.59,15.64,7.79,23.88c1.11,7.6,0.76,15.37-1.53,22.88
		c-2.16,7.07-6.05,14.08-11.97,19.63c-3.06,2.87-6.76,5.14-11.21,6.23c-2.3,0.56-4.7,0.89-7.08,1.01c-2.22,0.11-4.51,0-6.59-0.65
		c-7.53-2.33-8.48-10.01-8.57-15.78c-0.05-3.52-0.02-7.13-1.24-10.51c-0.59-1.62-1.49-3.17-2.78-4.49
		c-1.31-1.33-2.96-2.38-4.64-3.38c-1.72-1.02-3.49-2-5.02-3.21c-1.41-1.12-2.61-2.4-3.6-3.79c-1.97-2.76-3.09-5.93-3.37-9.14
		c-0.58-6.66,2.63-13.12,8.06-18.12c5.91-5.44,13.97-8.86,22.51-10.39c4.75-0.85,9.62-1.13,14.44-0.99
		c4.34,0.13,9.47,0.35,12.69,3.01c1.43,1.18,2.34,2.77,2.19,4.49c-0.03,0.37,0.67,0.32,0.7-0.04c0.15-1.69-0.69-3.29-2.02-4.52
		c-1.44-1.34-3.38-2.17-5.46-2.67c-2.23-0.53-4.58-0.68-6.91-0.79c-2.46-0.11-4.92-0.11-7.39,0.01c-9.26,0.47-18.59,2.77-26.08,7.54
		c-6.49,4.13-11.59,10.04-13.05,16.71c-1.43,6.49,0.55,13.54,5.93,18.37c2.94,2.64,7.06,4.14,9.98,6.8
		c2.99,2.72,3.9,6.44,4.18,10.03c0.28,3.44-0.01,6.92,0.57,10.34c0.51,3,1.57,6.09,4,8.4c1.23,1.17,2.78,2.09,4.54,2.63
		c2.07,0.64,4.32,0.8,6.54,0.72c4.7-0.17,9.56-1.13,13.56-3.32c3.74-2.05,6.69-4.94,9.19-7.97c2.59-3.15,4.69-6.56,6.32-10.11
		c3.27-7.14,4.63-14.78,4.4-22.32c-0.26-8.51-2.48-16.89-5.79-24.87c-0.81-1.96-1.69-3.9-2.63-5.82
		C1246.96,285.32,1246.29,285.52,1246.46,285.86L1246.46,285.86z"/>
	<path class="st5" d="M1221.13,364.37c2.38-0.11,4.5,0.94,6.45,1.88c1.9,0.92,3.92,1.95,6.22,1.97c2.65,0.03,4.76-1.47,5.93-3.35
		c1.51-2.43,1.34-5.16,1.66-7.78c0.17-1.38,0.52-2.72,1.12-4.02c0.57-1.25,1.3-2.46,2.05-3.65c1.52-2.4,3.02-4.78,4.24-7.29
		c2.39-4.92,3.95-10.1,4.63-15.34c0.68-5.24,0.51-10.54-0.57-15.7c-0.13-0.64-0.28-1.28-0.44-1.91c-0.09-0.36-0.75-0.16-0.66,0.19
		c1.28,5.07,1.67,10.31,1.2,15.51c-0.47,5.17-1.8,10.32-3.95,15.23c-1.08,2.47-2.38,4.87-3.86,7.2c-1.49,2.34-3.11,4.67-3.92,7.24
		c-0.85,2.69-0.44,5.5-1.25,8.2c-0.62,2.05-2.2,4.25-4.87,4.79c-2.22,0.45-4.36-0.46-6.2-1.33c-1.94-0.91-3.89-2.01-6.15-2.33
		c-0.54-0.08-1.09-0.1-1.64-0.08C1220.64,363.82,1220.68,364.39,1221.13,364.37L1221.13,364.37z"/>
	<path class="st5" d="M1256.71,291.53c-4.8-3.46-10.46-6.06-16.54-7.74c-6.11-1.69-12.63-2.44-19.13-2.23
		c-6.59,0.21-13.15,1.45-19.3,3.51c-6.2,2.08-12,4.99-17.15,8.54c-2.56,1.76-4.96,3.68-7.17,5.74c-2.26,2.1-4.37,4.4-5.58,7.03
		c-2.45,5.32-0.47,11.16,3.52,15.47c4.17,4.5,10.11,7.33,16,10.09c5.73,2.68,12.18,6.23,13.09,12.13c0.41,2.69-0.88,5.09-2.24,7.5
		c-1.22,2.17-2.56,4.54-2.01,6.96c0.53,2.31,2.71,3.96,5.24,4.86c3.11,1.1,6.52,1.03,9.87,0.9c1.93-0.07,3.87-0.16,5.79-0.02
		c0.44,0.03,0.6-0.53,0.15-0.56c-3.79-0.26-7.6,0.31-11.38,0.01c-2.82-0.22-5.83-1.09-7.64-2.93c-1.91-1.94-1.66-4.41-0.61-6.67
		c1.08-2.31,2.72-4.48,3.36-6.91c1.43-5.43-3.15-10.22-8.14-13.13c-2.77-1.62-5.79-2.9-8.72-4.31c-2.9-1.39-5.71-2.93-8.22-4.76
		c-4.93-3.6-8.7-8.63-8.43-14.29c0.27-5.64,5.29-10.25,10.03-14.01c4.78-3.81,10.27-7.03,16.21-9.47c5.87-2.41,12.2-4.07,18.68-4.75
		c6.35-0.67,12.82-0.38,19,0.82c6.2,1.2,12.13,3.34,17.29,6.37c1.24,0.73,2.43,1.51,3.57,2.33
		C1256.58,292.21,1257.04,291.77,1256.71,291.53L1256.71,291.53z"/>
	<path class="st5" d="M1266.48,290.21c8.87-0.8,18.11-0.94,26.56,1.45c7.06,1.99,13.46,5.97,16.83,11.51
		c1.76,2.88,2.44,6.03,2.23,9.28c-0.23,3.64-1.32,7.22-1.63,10.85c-0.15,1.76-0.1,3.53,0.32,5.25c0.45,1.84,1.4,3.53,2.33,5.22
		c1.89,3.43,3.15,7.05,2.89,10.9c-0.22,3.31-1.62,6.57-4.21,9.18c-1.2,1.21-2.63,2.26-4.25,3.07c-1.82,0.9-3.85,1.42-5.92,1.7
		c-4.37,0.6-8.97,0.34-13.15,1.77c-3.64,1.24-7.74,4.28-11.67,2.18c-1.61-0.86-2.76-2.18-4.1-3.29c-1.41-1.16-2.97-2.19-4.64-3.09
		c-1.69-0.9-3.5-1.66-5.39-2.25c-1.77-0.55-3.6-0.92-5.44-1.27c-3.41-0.65-7.3-1.39-9.18-4.04c-1.11-1.56-1.35-3.45-1.58-5.23
		c-0.25-1.96-0.38-3.93-0.4-5.9c-0.09-7.73,1.65-15.37,4.68-22.73c2.94-7.12,6.94-13.93,11.12-20.63c1.02-1.63,2.05-3.26,3.08-4.89
		c0.21-0.33-0.41-0.58-0.62-0.25c-4.34,6.85-8.68,13.73-12.13,20.91c-3.48,7.24-5.97,14.77-6.63,22.51
		c-0.35,4.02-0.25,8.07,0.35,12.05c0.26,1.71,0.67,3.48,1.88,4.91c1,1.18,2.45,2.02,4.05,2.58c3.49,1.24,7.39,1.47,10.92,2.63
		c3.87,1.27,7.36,3.23,10.18,5.73c1.28,1.13,2.51,2.4,4.24,3.09c1.86,0.74,3.91,0.51,5.8-0.13c2.07-0.7,3.93-1.78,6.02-2.45
		c2.17-0.7,4.48-0.94,6.77-1.12c4.31-0.33,8.71-0.5,12.5-2.5c3.19-1.68,5.64-4.28,7.02-7.16c1.66-3.44,1.78-7.22,0.87-10.77
		c-0.48-1.88-1.27-3.66-2.22-5.4c-0.96-1.76-1.98-3.5-2.47-5.41c-0.93-3.65-0.06-7.44,0.62-11.1c0.65-3.5,1.15-7.05,0.16-10.5
		c-1.73-6.04-7.23-10.93-13.69-13.86c-7.66-3.47-16.78-4.17-25.47-3.83c-2.22,0.09-4.45,0.24-6.66,0.44
		C1265.99,289.68,1266.03,290.25,1266.48,290.21L1266.48,290.21z"/>
	<path class="st5" d="M1267.3,290.91c5.01-0.68,10.13-0.54,15.03,0.39c4.89,0.92,9.6,2.62,13.63,5.04c2.01,1.21,3.85,2.64,5.09,4.43
		c1.35,1.95,1.83,4.23,2.07,6.46c0.47,4.33,0.22,8.73-0.67,13.04c-0.9,4.35-2.46,8.62-4.66,12.67c-0.54,1-1.12,1.99-1.74,2.96
		c-0.56,0.87-1.12,1.77-1.98,2.47c-0.84,0.68-1.95,0.98-3,0.48c-1.01-0.48-1.73-1.41-2.32-2.21c-2.47-3.34-2.74-7.43-2.95-11.28
		c-0.11-2-0.18-4.01-0.45-6c-0.28-2.05-0.81-4.06-1.67-5.99c-0.88-1.96-2.06-3.82-3.51-5.53c-1.48-1.73-3.25-3.24-5.13-4.66
		c-3.66-2.78-7.97-5.76-8.49-10.16c-0.12-0.98,0-1.96,0.37-2.91c0.14-0.35-0.54-0.46-0.68-0.11c-0.78,1.99-0.43,4.11,0.54,5.98
		c1.03,2,2.71,3.66,4.57,5.17c1.93,1.57,4.04,2.98,5.89,4.62c1.78,1.58,3.28,3.38,4.47,5.3c1.2,1.94,2.06,4.03,2.57,6.18
		c0.48,2.03,0.62,4.11,0.73,6.18c0.22,3.98,0.2,8.18,2.13,11.88c0.46,0.89,1.04,1.74,1.73,2.52c0.67,0.75,1.47,1.53,2.61,1.79
		c2.45,0.55,4.08-1.73,5.04-3.22c2.58-4,4.52-8.26,5.78-12.65c1.27-4.4,1.86-8.92,1.73-13.42c-0.07-2.25-0.24-4.55-0.9-6.73
		c-0.65-2.13-1.89-4-3.72-5.58c-1.75-1.51-3.87-2.72-6.06-3.77c-2.23-1.07-4.6-1.95-7.05-2.63c-4.86-1.35-10.06-1.92-15.23-1.65
		c-1.27,0.07-2.55,0.19-3.81,0.36C1266.82,290.39,1266.85,290.97,1267.3,290.91L1267.3,290.91z"/>
	<path class="st5" d="M1254.29,359.36c-0.56,2.42-1.19,5.09-0.1,7.45c0.79,1.73,2.61,3.32,4.92,3.59c4.85,0.56,6.95-4.22,9.01-6.92
		c2.88-3.78,7.74-6.16,12.56-7.93c4.59-1.7,9.7-2.87,13.52-5.73c1.87-1.4,3.21-3.19,3.84-5.19c0.66-2.07,0.56-4.23,0.23-6.31
		c-0.36-2.27-1.01-4.49-1.5-6.73c-0.51-2.33-0.79-4.67-0.56-7.05c0.25-2.58,0.95-5.13,1.66-7.66c0.36-1.27,0.72-2.54,1.04-3.82
		c0.31-1.26,0.61-2.55,0.52-3.84c-0.13-1.93-1.44-4.03-3.92-4.44c-1.15-0.19-2.29,0.16-3.44,0.25c-0.58,0.05-1.21,0.02-1.62-0.36
		c-0.45-0.4-0.5-1.02-0.62-1.54c-0.87-3.73-3.61-7.02-7.24-9.29c-3.61-2.25-8.13-3.58-12.74-3.45c-1.14,0.03-2.26,0.16-3.38,0.36
		c-0.44,0.08-0.22,0.62,0.22,0.54c4.46-0.83,9.12-0.09,13.03,1.7c3.9,1.78,7.12,4.64,8.68,8.1c0.4,0.88,0.65,1.77,0.86,2.69
		c0.21,0.9,0.75,1.68,1.94,1.82c1.12,0.12,2.22-0.24,3.33-0.29c1.19-0.06,2.26,0.44,2.99,1.17c1.91,1.92,1.17,4.65,0.59,6.9
		c-0.62,2.43-1.39,4.84-1.95,7.29c-0.55,2.4-0.9,4.85-0.69,7.29c0.18,2.15,0.72,4.26,1.23,6.37c0.98,4.03,2.14,8.57-0.42,12.44
		c-2.43,3.66-7.39,5.38-11.84,6.87c-4.66,1.56-9.38,3.23-13.21,6.02c-1.84,1.34-3.29,2.9-4.5,4.64c-1.07,1.55-2.05,3.27-3.7,4.48
		c-1.75,1.29-4.15,1.44-6,0.29c-2.19-1.36-2.85-3.59-2.73-5.78c0.07-1.28,0.36-2.55,0.66-3.81
		C1255.06,359.11,1254.38,359,1254.29,359.36L1254.29,359.36z"/>
	<path class="st5" d="M1270.25,290.5c-3.37-0.06-6.8,0.03-10.11,0.7c-3.05,0.62-6.04,1.84-7.95,3.98c-2.16,2.42-2.51,5.46-1.73,8.28
		c0.86,3.12,3.01,5.75,5.54,8.09c2.69,2.49,5.78,4.67,8.34,7.26c2.55,2.58,4.54,5.52,5.88,8.67c2.48,5.81,3.02,12.69-0.18,18.51
		c-0.74,1.35-1.69,2.62-2.85,3.75c-1.16,1.12-2.53,2.05-3.99,2.89c-2.76,1.59-5.88,2.94-8.02,5.14c-0.5,0.51-0.94,1.07-1.3,1.66
		c-0.2,0.33,0.42,0.59,0.62,0.25c1.54-2.54,4.55-4.09,7.33-5.6c1.42-0.77,2.85-1.56,4.13-2.49c1.32-0.96,2.44-2.08,3.38-3.3
		c4-5.23,4.3-11.87,2.72-17.65c-0.87-3.19-2.39-6.26-4.45-9.04c-2.11-2.84-4.88-5.21-7.72-7.55c-2.73-2.26-5.55-4.58-7.3-7.46
		c-1.6-2.63-2.42-5.82-1.28-8.73c2.23-5.69,10.39-6.7,16.57-6.78c0.81-0.01,1.62,0,2.43,0.01
		C1270.73,291.08,1270.69,290.51,1270.25,290.5L1270.25,290.5z"/>
	<path class="st5" d="M1266.93,289.66c-1.94-0.52-3.65-1.56-4.86-2.89c-0.6-0.66-1.08-1.39-1.4-2.17c-0.37-0.89-0.57-1.86-1.19-2.66
		c-0.93-1.2-2.71-1.84-4.43-1.78c-1.84,0.06-3.19,0.99-4.33,2.11c-1.13,1.11-2.3,2.72-4.25,2.81c-0.45,0.02-0.41,0.59,0.04,0.57
		c3.65-0.18,4.41-4.25,7.83-4.85c1.7-0.3,3.62,0.26,4.55,1.46c0.62,0.8,0.78,1.78,1.17,2.66c0.34,0.76,0.81,1.48,1.39,2.13
		c1.33,1.49,3.19,2.59,5.32,3.17C1267.2,290.34,1267.34,289.78,1266.93,289.66L1266.93,289.66z"/>
	<path class="st5" d="M1251.72,180.72c0.14,6.76,2.06,13.34,4.66,19.67c2.65,6.46,5.97,12.7,8.92,19.07
		c2.93,6.31,5.53,12.79,6.6,19.55c1.05,6.59,0.58,13.35-1.3,19.88c-1.88,6.52-5.16,12.79-9.7,18.41c-0.57,0.71-1.17,1.41-1.78,2.09
		c-0.36,0.4,0.33,0.9,0.69,0.5c4.85-5.43,8.5-11.55,10.78-17.98c2.29-6.45,3.21-13.21,2.63-19.86c-0.6-6.84-2.88-13.46-5.68-19.85
		c-2.83-6.44-6.18-12.71-9.03-19.15c-2.83-6.39-5.16-13.01-5.73-19.87c-0.07-0.84-0.11-1.67-0.13-2.51
		C1252.64,180.17,1251.71,180.23,1251.72,180.72L1251.72,180.72z"/>
</g>
<g class="st11">
	<path class="st6" d="M1479.91,401.37c-0.94-5.28-1.38-10.63-1.31-15.97c0.07-5.32,0.63-10.63,1.69-15.87
		c0.6-2.96,1.36-5.9,2.27-8.8c-0.27,0.03-0.53,0.06-0.8,0.09c1.67,2.15,2.23,4.68,2.8,7.14c0.6,2.58,1.31,5.14,2.16,7.68
		c1.69,5.08,3.88,10.04,6.53,14.83c1.33,2.4,2.77,4.76,4.33,7.07c1.5,2.22,3.12,4.39,4.61,6.62c1.46,2.18,2.8,4.43,3.72,6.81
		c0.94,2.44,1.36,4.96,1.11,7.52c-0.28,2.83-1.15,5.63-1.97,8.38c-0.41,1.37-0.83,2.73-1.28,4.09c-0.35,1.05-0.77,2.54-2.33,2.75
		c-1.62,0.23-1.74-1.5-1.8-2.41c-0.09-1.4,0.03-2.8,0.26-4.19c0.47-2.8,1.36-5.55,1.94-8.33c1.14-5.39,1.49-10.92,0.72-16.37
		c-0.38-2.69-1.03-5.35-1.98-7.95c-0.93-2.57-2.11-5.07-3.34-7.55c-1.22-2.46-2.5-4.91-3.64-7.4c-1.07-2.33-1.97-4.7-2.74-7.11
		c-1.28-3.99-2.63-8.5-6.76-11.19c-0.72-0.47-2.07-1.13-2.73-0.23c-0.29,0.4,0.47,0.76,0.76,0.36c0.43-0.58,2.46,1.19,2.75,1.44
		c0.86,0.77,1.56,1.65,2.15,2.57c1.22,1.93,1.96,4.03,2.64,6.12c0.77,2.35,1.53,4.68,2.54,6.97c1.11,2.52,2.38,5,3.62,7.47
		c1.24,2.48,2.46,4.96,3.47,7.51c1.03,2.6,1.79,5.27,2.25,7.98c0.94,5.53,0.68,11.19-0.43,16.7c-0.56,2.79-1.44,5.53-1.96,8.32
		c-0.26,1.38-0.43,2.77-0.41,4.16c0.02,1.05-0.03,2.41,0.86,3.26c0.87,0.83,2.35,0.7,3.32,0.06c1.16-0.76,1.47-2.07,1.83-3.18
		c0.9-2.76,1.75-5.53,2.44-8.33c0.66-2.65,1.03-5.34,0.58-8.04c-0.41-2.45-1.4-4.79-2.63-7.04c-1.27-2.3-2.81-4.5-4.36-6.69
		c-1.59-2.25-3.16-4.51-4.59-6.83c-2.93-4.76-5.38-9.72-7.33-14.81c-0.97-2.54-1.82-5.11-2.54-7.7c-0.69-2.5-1.09-5.08-2-7.54
		c-0.43-1.16-1-2.29-1.79-3.32c-0.2-0.25-0.7-0.22-0.8,0.09c-1.63,5.21-2.77,10.52-3.41,15.88c-0.63,5.35-0.76,10.73-0.38,16.1
		c0.22,3.03,0.6,6.04,1.13,9.05C1479.14,402.02,1479.99,401.82,1479.91,401.37L1479.91,401.37z"/>
	<path class="st6" d="M1501.15,473.28c0.05-5.24,0.61-10.47,1.69-15.64c0.53-2.55,1.2-5.07,1.96-7.58c0.75-2.47,1.51-4.97,1.68-7.52
		c0.29-4.41-1.46-8.83-4.78-12.29c-1.8-1.88-4.2-3.25-6.11-5.04c-1.96-1.84-3.22-4.11-4.56-6.27c-2.96-4.81-5.93-9.62-8.9-14.43
		c-0.36-0.59-0.72-1.17-1.08-1.76c-0.26-0.41-1.01-0.05-0.76,0.36c2.94,4.77,5.88,9.54,8.82,14.31c1.36,2.21,2.62,4.52,4.28,6.59
		c0.79,0.99,1.71,1.89,2.75,2.72c1.06,0.84,2.19,1.62,3.24,2.47c3.79,3.11,6.07,7.41,6.24,11.81c0.1,2.52-0.52,5-1.24,7.44
		c-0.74,2.5-1.49,5-2.07,7.53c-1.16,5.08-1.83,10.23-2,15.4c-0.02,0.64-0.03,1.27-0.04,1.91
		C1500.26,473.74,1501.14,473.74,1501.15,473.28L1501.15,473.28z"/>
	<path class="st6" d="M1510,516.5c-0.8-3.75-1.53-7.5-2.07-11.28c-0.52-3.63-0.79-7.27-1.11-10.91c-0.31-3.56-0.72-7.12-1.63-10.61
		c-0.92-3.5-2.48-6.8-4.4-10.01c-0.95-1.59-1.97-3.15-2.99-4.71c-0.95-1.46-1.91-2.92-3.08-4.28c-1.17-1.36-2.53-2.57-4.15-3.58
		c-1.54-0.96-3.25-1.75-5-2.43c-6.24-2.42-13.29-3.28-20.13-2.66c-6.84,0.62-13.51,2.69-18.97,6.15c-0.66,0.42-1.3,0.85-1.92,1.31
		c-0.36,0.26,0.03,0.66,0.43,0.6c4.13-0.58,8.25,0.66,11.77,2.36c3.52,1.7,6.57,3.95,9.87,5.92c1.67,0.99,3.4,1.92,5.25,2.66
		c1.73,0.69,3.55,1.21,5.4,1.61c3.75,0.82,7.62,1.17,11.44,1.66c4.29,0.55,8.62,1.28,12.45,3.02c0.49,0.22,0.94-0.4,0.44-0.62
		c-7-3.17-15.21-3.04-22.82-4.49c-1.91-0.36-3.79-0.82-5.59-1.47c-1.84-0.66-3.56-1.51-5.21-2.45c-3.41-1.95-6.49-4.26-10.02-6.07
		c-3.93-2.02-8.53-3.47-13.22-2.82c0.14,0.2,0.28,0.4,0.43,0.6c5.07-3.71,11.46-6.07,18.13-7c6.67-0.93,13.66-0.4,19.95,1.65
		c3.47,1.13,6.91,2.7,9.39,5.03c1.3,1.22,2.34,2.61,3.31,4.03c1.01,1.48,1.98,2.99,2.94,4.5c1.98,3.12,3.76,6.32,4.88,9.73
		c1.11,3.4,1.63,6.91,1.99,10.41c0.36,3.54,0.56,7.1,0.99,10.64c0.45,3.69,1.1,7.36,1.84,11.02c0.18,0.9,0.37,1.79,0.56,2.69
		C1509.25,517.14,1510.09,516.95,1510,516.5L1510,516.5z"/>
	<path class="st6" d="M1513.43,516.18c4.34-1.24,8.48-2.93,12.31-5.02c3.82-2.09,7.34-4.56,10.41-7.36
		c1.57-1.43,3.07-2.93,4.34-4.55c1.29-1.65,2.34-3.47,2.68-5.43c0.74-4.21-1.69-8.17-3.76-11.89c-2.17-3.88-4.1-8.01-4.13-12.34
		c0-0.53,0.02-1.07,0.08-1.6c-0.29,0-0.58,0-0.88,0c0.02,6.81-3.95,13.06-8.33,18.65c-4.47,5.71-9.55,11.16-12.43,17.59
		c-1.67,3.73-2.64,7.64-3.16,11.58c-0.06,0.46,0.82,0.46,0.88,0c0.46-3.51,1.31-6.99,2.68-10.34c1.34-3.27,3.26-6.34,5.46-9.28
		c4.29-5.75,9.49-11.08,12.78-17.32c1.81-3.44,3.02-7.12,3.01-10.89c0-0.47-0.83-0.46-0.88,0c-0.43,4.22,1.07,8.37,3.05,12.22
		c1.93,3.75,4.75,7.51,4.9,11.69c0.15,4.02-2.77,7.42-5.8,10.35c-2.92,2.83-6.28,5.36-9.96,7.5c-3.68,2.14-7.69,3.92-11.91,5.25
		c-0.52,0.16-1.04,0.32-1.56,0.47C1512.67,515.64,1512.9,516.33,1513.43,516.18L1513.43,516.18z"/>
	<path class="st6" d="M1506.8,521.6c0.16-1.92-0.41-3.81-1.2-5.6c-0.76-1.72-1.66-3.41-2.59-5.07c-1.78-3.16-3.94-6.26-7-8.71
		c-2.98-2.38-6.68-4.04-10.55-5.22c-4.08-1.24-8.34-1.96-12.6-2.62c-4.63-0.72-9.29-1.38-13.76-2.61c-0.56-0.15-1.12-0.32-1.67-0.49
		c-0.4-0.13-0.77,0.38-0.43,0.6c3.82,2.51,6.93,5.63,9.9,8.8c2.98,3.17,5.87,6.43,9.35,9.25c1.79,1.45,3.74,2.76,5.85,3.89
		c2.33,1.24,4.82,2.28,7.31,3.29c4.68,1.89,9.52,3.7,13.5,6.53c1.91,1.36,3.57,2.93,4.79,4.75c1.33,2,2.12,4.21,2.66,6.43
		c0.14,0.56,0.26,1.13,0.37,1.69c0.09,0.46,0.94,0.26,0.85-0.19c-0.45-2.26-1.06-4.51-2.14-6.62c-1.02-2-2.48-3.79-4.32-5.35
		c-3.62-3.06-8.29-5.07-12.91-6.92c-4.9-1.97-9.84-3.9-13.93-6.92c-3.65-2.69-6.63-5.92-9.6-9.1c-2.97-3.19-5.97-6.4-9.65-9.07
		c-0.46-0.33-0.93-0.65-1.4-0.97c-0.14,0.2-0.28,0.4-0.43,0.6c4.33,1.35,8.88,2.1,13.41,2.8c4.28,0.66,8.58,1.29,12.73,2.39
		c3.86,1.02,7.63,2.46,10.76,4.61c3.22,2.22,5.52,5.12,7.38,8.19c0.94,1.56,1.78,3.16,2.59,4.77c0.87,1.75,1.7,3.58,1.86,5.49
		c0.04,0.46,0.04,0.92,0,1.39C1505.88,522.06,1506.76,522.06,1506.8,521.6L1506.8,521.6z"/>
	<path class="st6" d="M1494.41,612.28c-0.21-6.59,0.3-13.2,1.55-19.71c1.25-6.5,3.23-12.88,5.86-19.1c1.34-3.16,2.79-6.29,4.07-9.47
		c1.26-3.13,2.31-6.31,3.12-9.53c1.6-6.35,2.35-12.83,2.65-19.3c0.31-6.55,0.15-13.1-0.06-19.65c-0.03-0.81-0.05-1.63-0.08-2.44
		c-0.02-0.46-0.89-0.46-0.88,0c0.22,6.55,0.43,13.1,0.23,19.65c-0.2,6.54-0.8,13.09-2.24,19.54c-0.72,3.22-1.65,6.41-2.82,9.54
		c-1.2,3.2-2.63,6.34-4,9.49c-2.7,6.21-4.89,12.54-6.3,19.04c-1.39,6.43-2.08,12.96-2.04,19.5c0,0.82,0.02,1.63,0.05,2.45
		C1493.55,612.74,1494.43,612.74,1494.41,612.28L1494.41,612.28z"/>
	<path class="st6" d="M1500.82,571.74c4.96-0.82,8.55-4.19,10.67-7.78c2.44-4.15,3.49-8.74,5.81-12.93
		c4.07-7.36,11.06-14.14,20.95-16.17c5.92-1.21,12.08-0.79,18.12-0.74c6.31,0.05,12.62-0.44,18.8-1.48
		c6.05-1.02,11.96-2.8,18.17-3.05c5.53-0.22,11.11,0.65,16.17,2.49c9.72,3.55,17.04,10.7,19.75,19.14c0.33,1.03,0.59,2.07,0.78,3.12
		c0.18-0.15,0.36-0.3,0.54-0.44c-3.94-0.61-6.97-2.98-10.6-4.21c-3.97-1.35-8.45-1.22-12.57-0.43c-4.42,0.85-8.53,2.49-12.67,3.98
		c-4.03,1.45-8.15,2.66-12.46,3.41c-8.38,1.46-17.34,1.2-25.12-1.95c-7.24-2.93-13.22-7.95-21.01-9.98
		c-5.76-1.5-13.27-1.43-17.71,2.42c-0.52,0.45-0.98,0.95-1.38,1.47c-0.3,0.39,0.46,0.75,0.76,0.36c3.57-4.63,11.2-5.1,17.09-3.81
		c3.71,0.82,7.06,2.47,10.25,4.19c3.43,1.85,6.75,3.87,10.37,5.46c7.33,3.23,15.68,3.98,23.84,2.99c4.2-0.51,8.32-1.46,12.27-2.73
		c4.16-1.34,8.14-3.04,12.36-4.25c4.1-1.17,8.58-1.88,12.89-1.15c4.03,0.68,7.07,2.93,10.77,4.23c0.86,0.3,1.75,0.54,2.67,0.68
		c0.35,0.05,0.59-0.16,0.54-0.44c-1.55-8.53-7.77-16.35-16.73-20.88c-4.67-2.35-9.98-3.81-15.42-4.28c-2.79-0.24-5.61-0.2-8.39,0.1
		c-3.09,0.34-6.12,0.98-9.13,1.61c-6.29,1.33-12.62,2.31-19.13,2.59c-6.22,0.27-12.47-0.28-18.68,0.16
		c-5.37,0.38-10.42,1.73-14.78,4.37c-3.95,2.39-7.14,5.54-9.64,8.99c-1.27,1.75-2.36,3.59-3.3,5.48c-1.06,2.15-1.86,4.37-2.73,6.57
		c-1.68,4.23-3.98,8.73-8.88,11.08c-1.09,0.52-2.25,0.88-3.48,1.09C1500.04,571.14,1500.27,571.83,1500.82,571.74L1500.82,571.74z"
		/>
</g>
<g class="st12">
	<path class="st13" d="M1497.47,199.3c-0.75-3.31-1.13-6.68-1.13-10.05c0-3.11,0.15-6.35,1.36-9.33c1.03-2.52,3.07-4.9,6.11-6
		c2.51-0.91,5.95-0.69,7.67,1.26c0.92,1.05,0.92,2.3,0.02,3.36c-0.76,0.9-2.23,1.61-3.55,1.1c0.09,0.1,0.18,0.19,0.27,0.29
		c-2.49-6.3,0.86-12.85,4.25-18.47c3.84-6.35,7.86-12.63,11.79-18.95c2.25-3.6,4.49-7.21,6.74-10.81c0.35-0.55-0.67-1.04-1.02-0.48
		c-4.2,6.73-8.39,13.46-12.59,20.2c-2.04,3.27-4.12,6.53-6.1,9.83c-1.84,3.07-3.56,6.25-4.47,9.6c-0.44,1.62-0.7,3.29-0.65,4.95
		c0.02,0.79,0.12,1.57,0.28,2.35c0.09,0.42,0.2,0.83,0.33,1.24c0.11,0.34,0.18,0.9,0.57,1.11c1.22,0.66,2.98,0.21,4.02-0.46
		c1.17-0.75,1.98-1.92,1.99-3.15c0.03-2.72-3.5-4.38-6.45-4.45c-3.48-0.08-6.6,1.82-8.5,4.08c-2.27,2.71-2.9,6.1-3.14,9.31
		c-0.28,3.69-0.11,7.4,0.51,11.07c0.15,0.9,0.33,1.8,0.53,2.69C1496.48,200.18,1497.61,199.91,1497.47,199.3L1497.47,199.3z"/>
	<path class="st13" d="M1525.77,224.92c-2.72-1.47-5-3.45-6.66-5.74c-0.82-1.14-1.49-2.35-1.98-3.61c-0.56-1.46-0.89-2.97-1.6-4.39
		c-1.35-2.68-4.18-4.46-7.07-5.98c-3.07-1.61-6.4-2.89-9.87-3.8c-3.13-0.83-6.51-1.48-9.82-1.19c-1.55,0.14-3.08,0.47-4.43,1.13
		c-1.26,0.61-2.25,1.48-3.13,2.43c-1.53,1.67-2.76,3.87-5.14,4.85c-3.08,1.27-6.37-0.64-7.94-2.77c-0.92-1.25-1.5-2.63-2.04-4.02
		c-0.59-1.51-1.26-3.06-1.2-4.67c0.05-1.29,0.73-2.58,2.1-3.28c1.12-0.57,2.5-0.5,3.41,0.3c0.82,0.72,1.09,1.83,0.96,2.79
		c-0.17,1.19-1.1,2.2-2.13,3c-2.37,1.83-5.58,2.79-7.73,4.84c-1.05,1-1.72,2.18-1.86,3.49c-0.13,1.3,0.29,2.61,1.02,3.76
		c1.59,2.5,4.72,3.98,7.86,4.89c3.54,1.02,7.34,1.52,11.1,1.55c1.91,0.02,3.82-0.1,5.71-0.32c1.96-0.24,3.87-0.64,5.79-1.03
		c3.4-0.7,6.94-1.35,10.41-0.62c1.48,0.31,2.89,0.86,4,1.73c0.97,0.76,1.61,1.73,2.12,2.73c0.98,1.93,1.54,4.14,3.26,5.74
		c0.91,0.85,2.15,1.38,3.52,1.54c1.88,0.22,3.87,0.06,5.75-0.1c1.95-0.16,3.88-0.42,5.79-0.77c0.74-0.14,0.42-1.07-0.32-0.93
		c-1.99,0.37-4.01,0.63-6.04,0.78c-1.01,0.07-2.02,0.12-3.04,0.14c-0.92,0.02-1.86,0.01-2.75-0.21c-2.54-0.64-3.46-2.96-4.27-4.81
		c-0.96-2.19-2.01-4.31-4.47-5.64c-2.74-1.47-6.22-1.7-9.39-1.34c-3.92,0.44-7.67,1.59-11.61,1.96c-3.88,0.37-7.83,0.21-11.64-0.49
		c-3.42-0.63-7.08-1.61-9.51-3.8c-2.19-1.97-2.94-4.97-0.92-7.23c1.98-2.2,5.33-3.19,7.77-4.97c1.13-0.82,2.17-1.87,2.58-3.09
		c0.34-1.02,0.25-2.16-0.25-3.13c-0.49-0.95-1.4-1.75-2.64-2.02c-1.47-0.32-2.97,0.18-4.02,1.04c-2.78,2.28-1.59,5.62-0.55,8.3
		c1.05,2.71,2.36,5.59,5.47,7.13c1.38,0.68,3,1.03,4.61,0.81c1.34-0.18,2.53-0.78,3.5-1.56c1.98-1.6,3.07-3.79,5.1-5.35
		c2.38-1.84,5.83-2.09,8.93-1.78c3.51,0.35,7,1.32,10.21,2.52c1.67,0.63,3.3,1.34,4.86,2.15c1.52,0.78,3.02,1.63,4.32,2.65
		c1.31,1.03,2.25,2.23,2.84,3.64c0.58,1.42,0.91,2.9,1.53,4.31c1.12,2.55,2.92,4.88,5.24,6.81c1.11,0.92,2.35,1.75,3.67,2.46
		C1525.82,226.1,1526.4,225.26,1525.77,224.92L1525.77,224.92z"/>
	<path class="st13" d="M1473.13,218.29c-4.89,0.49-9.83,0.56-14.74,0.21c-4.88-0.35-9.62-1.21-14.33-2.25
		c-4.56-1.01-9.13-2.07-13.85-2.47c-4.17-0.35-8.39-0.06-12.44,0.85c-7.96,1.79-15.03,5.89-19.58,11.56
		c-4.57,5.68-6.49,12.63-5.41,19.36c0.61,3.81,1.79,7.71,0.08,11.46c-1.42,3.12-4.19,5.69-5.82,8.73c-0.86,1.61-1.55,3.4-0.92,5.14
		c0.58,1.59,1.98,2.99,3.49,4.06c2.94,2.09,6.89,3.23,10.79,3c3.84-0.23,7.52-1.77,10.06-4.15c1.34-1.25,2.28-2.69,2.97-4.25
		c0.73-1.64,1.21-3.34,1.9-4.99c0.62-1.49,1.47-2.91,2.74-4.1c1.05-0.98,2.32-1.77,3.7-2.41c2.9-1.35,6.18-2.06,9.37-2.78
		c3.32-0.75,6.69-1.49,9.77-2.8c2.97-1.26,5.42-3.12,7.54-5.21c2.14-2.11,3.99-4.41,5.98-6.62c1.88-2.09,3.94-4.18,6.54-5.7
		c1.26-0.74,2.62-1.33,4.08-1.74c0.72-0.2,0.4-1.13-0.32-0.93c-6.25,1.74-10.04,6.4-13.7,10.61c-1.91,2.19-3.86,4.38-6.29,6.21
		c-2.43,1.83-5.31,3.04-8.41,3.91c-3.24,0.91-6.59,1.51-9.84,2.37c-3.02,0.8-6.01,1.86-8.37,3.65c-1.28,0.97-2.31,2.15-3.05,3.44
		c-0.89,1.55-1.43,3.21-2.02,4.85c-0.58,1.62-1.24,3.22-2.38,4.64c-1.03,1.28-2.4,2.38-3.96,3.21c-3.23,1.72-7.16,2.27-10.88,1.44
		c-1.86-0.42-3.63-1.15-5.12-2.15c-1.5-1.01-2.95-2.34-3.49-3.9c-0.59-1.7,0.31-3.51,1.22-5.02c0.89-1.48,2-2.86,3.04-4.26
		c1.03-1.39,2.01-2.82,2.66-4.37c0.73-1.75,0.89-3.6,0.75-5.43c-0.15-1.94-0.6-3.85-0.92-5.78c-0.28-1.72-0.4-3.45-0.3-5.19
		c0.2-3.3,1.14-6.59,2.75-9.62c3.26-6.14,9.18-11.06,16.61-13.83c3.64-1.36,7.6-2.19,11.59-2.4c4.55-0.24,9.04,0.4,13.44,1.3
		c4.54,0.92,9.02,2.07,13.62,2.77c4.76,0.72,9.62,1.05,14.47,0.96c2.33-0.04,4.67-0.19,6.98-0.42
		C1473.88,219.18,1473.88,218.21,1473.13,218.29L1473.13,218.29z"/>
	<path class="st13" d="M1574.92,294.86c0.82,4.32,1.49,8.73,0.97,13.1c-0.51,4.28-2.41,8.37-6.44,11.24
		c-2.33,1.65-5.03,2.92-7.15,4.77c-1.99,1.74-3.46,3.83-4.57,6.02c-2.47,4.88-3.6,10.3-3.86,15.56c-0.13,2.74,0.01,5.5,0.42,8.22
		c0.42,2.77,1.09,5.55,0.95,8.36c-0.11,2.13-0.77,4.15-2.2,5.95c-1.19,1.5-2.82,2.76-4.66,3.72c-3.72,1.93-8.43,2.7-12.68,1.61
		c-2.57-0.66-4.64-2.14-7.08-3.03c-2.3-0.84-4.73-0.95-7.08-0.18c-4.37,1.44-7.4,4.78-11.87,6.06c-2.61,0.75-5.33,0.44-7.95-0.1
		c-2.74-0.56-5.42-1.35-8.24-1.6c-1.33-0.12-2.67-0.08-3.99,0.15c-0.74,0.13-0.42,1.06,0.32,0.93c2.79-0.48,5.61,0.09,8.29,0.7
		c2.71,0.62,5.46,1.35,8.3,1.33c2.56-0.02,4.88-0.78,7-1.91c2.03-1.08,3.85-2.39,5.87-3.49c1.84-1,3.9-1.8,6.16-1.65
		c2.91,0.18,5.25,1.91,7.75,2.96c4.09,1.72,8.97,1.62,13.16,0.16c4.16-1.45,7.72-4.17,9.24-7.71c1.04-2.42,0.98-5.06,0.65-7.58
		c-0.37-2.81-0.98-5.58-1.15-8.41c-0.34-5.54,0.44-11.15,2.36-16.48c0.84-2.34,1.95-4.64,3.58-6.69c0.81-1.02,1.75-1.97,2.82-2.81
		c1.14-0.89,2.41-1.65,3.67-2.41c2.33-1.41,4.52-2.9,6.12-4.91c1.4-1.75,2.33-3.75,2.88-5.79c1.16-4.31,0.81-8.81,0.12-13.16
		c-0.17-1.08-0.36-2.15-0.57-3.22C1575.94,293.98,1574.81,294.25,1574.92,294.86L1574.92,294.86z"/>
	<path class="st13" d="M1514.07,227.65c13.32-3.02,28.32-2.36,40.62,3c6.44,2.81,11.66,6.88,15.66,11.86
		c4.47,5.55,7.6,11.74,11.9,17.38c2.24,2.94,4.75,5.75,7.49,8.4c2.73,2.64,5.79,5,8.71,7.5c2.76,2.36,5.2,4.9,6.83,7.9
		c1.53,2.82,2.37,5.9,2.6,8.99c0.22,3.1-0.16,6.23-1.09,9.24c-1.02,3.27-2.79,6.29-4.66,9.29c-1.94,3.11-3.81,6.22-5.03,9.58
		c-1.24,3.43-1.98,6.96-2.84,10.46c-1.52,6.14-3.6,12.69-9.21,17.23c-5.53,4.48-13.48,5.63-20.92,6.01c-1.85,0.1-3.7,0.15-5.56,0.19
		c-0.76,0.02-0.75,0.99,0.01,0.97c7.58-0.18,15.67-0.44,22.47-3.53c6.81-3.09,10.55-8.83,12.66-14.77c2.48-6.98,3-14.36,6.68-21.05
		c1.79-3.26,4.02-6.35,5.7-9.66c1.51-2.96,2.47-6.07,2.86-9.26c0.74-6.15-0.79-12.58-5.04-17.73c-2.38-2.89-5.51-5.29-8.49-7.75
		c-3.07-2.53-5.93-5.23-8.51-8.11c-2.55-2.85-4.8-5.85-6.85-8.96c-1.99-3.01-3.84-6.09-5.9-9.07c-3.79-5.48-8.43-10.4-14.83-13.96
		c-11.66-6.49-26.72-8.14-40.42-6.07c-1.73,0.26-3.45,0.59-5.15,0.98C1513.02,226.88,1513.34,227.82,1514.07,227.65L1514.07,227.65z
		"/>
	<path class="st13" d="M1463.76,263.74c-9.51-0.98-20.33-1.89-29.02,2.23c-3.8,1.8-6.69,4.52-8.84,7.62
		c-2.11,3.06-3.57,6.38-5.09,9.66c-1.48,3.2-3.01,6.42-5.31,9.29c-1.12,1.4-2.44,2.7-3.98,3.81c-1.92,1.38-4.19,2.39-6.53,3.21
		c-4.76,1.67-9.98,2.7-14.04,5.48c-3.58,2.44-6.48,6.38-4.87,10.28c1.11,2.68,3.92,4.37,6.91,5.57c3.26,1.31,6.78,2.16,9.95,3.64
		c1.47,0.69,2.87,1.53,3.92,2.62c1.15,1.19,1.8,2.65,1.97,4.15c0.39,3.42-1.08,6.8-1.91,10.11c-0.79,3.16-1.17,6.68,1.33,9.41
		c1.41,1.54,3.44,2.52,5.61,3.18c2.37,0.72,5.04,1.23,7.58,1.33c2.54,0.1,4.84-0.62,6.5-2.22c1.49-1.43,2.39-3.18,3.37-4.87
		c1.97-3.4,4.86-6.33,8.56-8.57c3.71-2.25,8.05-3.79,12.6-4.41c2.26-0.31,4.58-0.38,6.86-0.21c2.77,0.21,5.44,0.87,8.14,1.38
		c4.71,0.88,10.61,1.24,14.24-1.96c3.44-3.03,2.81-7.49,4.89-11.03c0.91-1.55,2.3-2.96,4.41-3.39c0.74-0.15,0.42-1.08-0.32-0.93
		c-4.67,0.96-6.01,5.33-6.86,8.68c-0.49,1.93-1.01,3.99-2.52,5.58c-1.48,1.55-3.74,2.36-6.07,2.62c-5.42,0.62-10.6-1.5-15.92-1.91
		c-4.49-0.34-9.09,0.28-13.28,1.66c-4.19,1.39-8.03,3.52-11.09,6.27c-1.51,1.36-2.84,2.87-3.9,4.49c-1.07,1.62-1.85,3.37-3.07,4.93
		c-1.29,1.66-3.1,2.84-5.58,2.94c-1.43,0.05-2.85-0.17-4.24-0.4c-1.14-0.19-2.27-0.42-3.38-0.72c-2.21-0.6-4.39-1.56-5.75-3.17
		c-1.09-1.29-1.54-2.81-1.56-4.37c-0.05-3.37,1.44-6.62,2.16-9.91c0.68-3.12,0.72-6.47-1.72-9.1c-2.13-2.3-5.41-3.56-8.58-4.65
		c-3.15-1.08-6.62-1.98-9.29-3.79c-1.21-0.81-2.22-1.83-2.77-3.05c-0.79-1.75-0.57-3.65,0.39-5.33c1.04-1.81,2.73-3.35,4.65-4.55
		c2.04-1.28,4.4-2.13,6.78-2.9c4.74-1.52,9.71-2.77,13.55-5.65c3-2.25,5.09-5.17,6.75-8.18c1.73-3.15,3.07-6.43,4.65-9.62
		c1.55-3.11,3.38-6.22,6.13-8.75c3.11-2.87,7.25-4.68,11.76-5.55c4.77-0.93,9.76-0.9,14.62-0.6c2.4,0.15,4.8,0.37,7.19,0.62
		C1464.51,264.79,1464.5,263.82,1463.76,263.74L1463.76,263.74z"/>
	<path class="st13" d="M1465.1,241.28c0.74,3.78-0.01,7.74-1.98,11.21c-2.03,3.59-5.26,6.49-9.35,8.56
		c-4.26,2.15-8.98,3.64-12.86,6.29c-2.92,2-5.31,4.46-7.42,7.04c-4.27,5.24-7.38,11.08-12.03,16.12c-2.18,2.36-4.75,4.52-7.86,6.06
		c-1.87,0.92-3.87,1.55-5.97,2.02c-2.63,0.58-5.34,0.97-7.86,1.86c-4.58,1.61-7.99,4.77-10.85,8.01c-3.02,3.42-5.53,7.23-6.75,11.35
		c-1.09,3.7-1.05,7.59,0.52,11.19c1.45,3.33,4.14,6.34,7.94,8.09c4.61,2.12,10.05,2.15,15.13,2.93c5.1,0.78,10.06,2.18,14.67,4.13
		c4.6,1.94,8.62,4.46,12.49,7.25c3.42,2.47,7.05,5.11,11.56,6.08c2.06,0.44,4.39,0.59,6.39-0.13c2.15-0.76,3.16-2.43,3.24-4.29
		c0.1-2.15-0.67-4.36-1.35-6.41c-0.75-2.24-1.64-4.45-2.33-6.7c-1.18-3.88-1.75-8.26,0.36-12.02c1.08-1.92,2.84-3.3,4.79-4.62
		c1.87-1.27,3.8-2.57,4.83-4.43c0.88-1.59,1.11-3.43-0.06-4.96c-0.4-0.53-1.42-0.03-1.01,0.5c1.27,1.67,0.47,3.75-0.83,5.24
		c-1.45,1.68-3.67,2.81-5.49,4.19c-3.52,2.68-4.89,6.43-4.81,10.3c0.08,4.33,1.94,8.43,3.34,12.56c0.7,2.06,1.51,4.29,1.38,6.46
		c-0.06,0.96-0.4,1.93-1.26,2.62c-0.8,0.64-1.92,0.95-3.01,1.05c-4.65,0.43-8.95-2.01-12.33-4.31c-1.79-1.22-3.49-2.52-5.28-3.74
		c-1.93-1.33-3.97-2.55-6.11-3.64c-4.27-2.19-8.93-3.9-13.77-5.06c-2.43-0.58-4.9-1.01-7.41-1.31c-2.55-0.31-5.13-0.53-7.64-1.02
		c-2.38-0.47-4.69-1.21-6.64-2.44c-1.71-1.08-3.12-2.46-4.19-4c-2.22-3.17-3.03-6.91-2.55-10.53c0.55-4.18,2.69-8.14,5.42-11.66
		c2.63-3.39,5.85-6.85,10.11-8.94c4.37-2.15,9.67-2.2,14.22-4c3.19-1.26,5.93-3.18,8.24-5.36c4.91-4.65,8.07-10.32,11.94-15.53
		c1.95-2.63,4.09-5.2,6.7-7.42c1.34-1.13,2.79-2.17,4.38-3.06c2.16-1.21,4.51-2.17,6.83-3.17c2.26-0.97,4.5-1.98,6.51-3.28
		c1.73-1.11,3.24-2.42,4.54-3.87c2.65-2.96,4.3-6.49,4.79-10.13c0.24-1.78,0.17-3.57-0.17-5.34
		C1466.11,240.4,1464.98,240.67,1465.1,241.28L1465.1,241.28z"/>
	<path class="st13" d="M1457.61,236.97c-5.42,3.74-11.99,6.06-18.35,8.49c-5.89,2.25-11.73,4.71-16.53,8.38
		c-2.24,1.72-4.23,3.7-5.67,5.94c-1.42,2.21-2.1,4.58-2.68,7.01c-0.53,2.22-1.02,4.58-2.53,6.53c-1.42,1.83-3.78,2.96-6.44,2.87
		c-2.62-0.09-5.12-1.22-6.92-2.73c-2.23-1.86-3.22-4.36-3.38-6.94c-0.19-3.08,0.72-6.14,1.85-9.05c1.18-3.04,2.57-6.03,4.05-8.98
		c2.97-5.96,6.35-11.78,9.75-17.58c1.39-2.37,2.87-4.79,5.18-6.65c2.39-1.93,5.53-2.83,8.83-3.01c3.42-0.19,6.82,0.25,10.19,0.66
		c3.74,0.45,7.5,0.85,11.27,1.1c7.5,0.51,15.14,0.45,22.52-0.95c1.78-0.34,3.54-0.76,5.27-1.25c0.71-0.21,0.4-1.14-0.32-0.93
		c-7.3,2.1-15.07,2.64-22.75,2.4c-3.89-0.12-7.77-0.43-11.63-0.85c-3.6-0.38-7.19-0.95-10.82-1.14c-3.37-0.18-6.87,0.02-9.95,1.26
		c-3,1.21-5.15,3.36-6.8,5.69c-1.84,2.6-3.3,5.39-4.87,8.11c-1.72,2.98-3.41,5.97-5.01,9c-1.6,3.01-3.11,6.05-4.48,9.14
		c-1.32,2.98-2.61,6.02-3.18,9.16c-0.53,2.92-0.44,6.04,1.1,8.75c1.17,2.06,3.29,3.78,5.76,4.79c2.36,0.97,5.2,1.34,7.71,0.5
		c2.66-0.89,4.34-2.81,5.32-4.96c1.03-2.27,1.36-4.7,2.03-7.04c0.71-2.5,1.98-4.8,3.84-6.87c3.81-4.27,9.44-7.26,15.11-9.62
		c6.41-2.67,13.19-4.76,19.22-8c1.44-0.78,2.83-1.62,4.15-2.53C1459.03,237.25,1458.19,236.58,1457.61,236.97L1457.61,236.97z"/>
	<path class="st13" d="M1516.48,249.47c4.66,6.31,9.68,13.2,9.85,20.8c0.16,6.88-4.54,12.64-8.05,18.6
		c-1.69,2.87-3.13,5.86-3.59,9.04c-0.29,1.96-0.08,3.93-0.07,5.9c0.01,1.85-0.28,3.63-1.09,5.36c-1.46,3.13-4.26,5.74-7.22,7.99
		c-1.52,1.16-3.11,2.28-4.77,3.29c-1.66,1.02-3.53,1.91-5.65,1.94c-3.45,0.05-6.33-1.99-8.92-3.6c-1.4-0.87-2.82-1.74-4.39-2.41
		c-1.81-0.77-3.75-1.16-5.78-1.24c-4.52-0.19-9.09,1-13.57,0.22c-4.11-0.71-7.61-2.95-10.31-5.51c-5.12-4.86-7.58-11.5-6.84-17.89
		c0.72-6.23,4.85-11.58,9.17-16.56c4.23-4.88,8.93-9.71,11.21-15.49c1.13-2.87,1.35-5.81,1.45-8.8c0.09-2.83,0.06-5.85,1.43-8.51
		c0.62-1.22,1.58-2.31,2.87-3.11c0.6-0.37,0-1.21-0.6-0.83c-2.89,1.82-4.07,4.56-4.51,7.44c-0.46,3.02-0.24,6.07-0.62,9.1
		c-0.76,6.2-5.07,11.5-9.39,16.44c-4.39,5.03-9.18,10.09-11.26,16.14c-2.17,6.32-0.96,13.31,3,18.99c2.03,2.92,4.83,5.55,8.24,7.43
		c1.77,0.98,3.76,1.73,5.85,2.1c2.27,0.39,4.61,0.31,6.91,0.14c2.29-0.17,4.58-0.42,6.89-0.34c2.07,0.08,4.02,0.52,5.82,1.36
		c3.14,1.46,5.68,3.67,8.92,4.98c1.5,0.61,3.15,0.99,4.83,0.9c2.19-0.12,4.12-1,5.85-2.06c3.36-2.05,6.62-4.41,9.19-7.13
		c1.27-1.34,2.37-2.79,3.16-4.37c0.84-1.68,1.24-3.44,1.3-5.25c0.06-2.04-0.22-4.09,0.01-6.13c0.18-1.64,0.67-3.25,1.32-4.81
		c2.63-6.31,7.9-11.73,9.75-18.29c2.12-7.53-1.47-14.92-5.85-21.41c-1.13-1.67-2.32-3.3-3.52-4.93
		C1517.1,248.44,1516.09,248.94,1516.48,249.47L1516.48,249.47z"/>
	<path class="st13" d="M1496,209.63c5.56,3.72,10.16,8.34,13.58,13.52c3.39,5.13,5.63,10.79,6.5,16.59
		c0.49,3.29,0.54,6.62,0.13,9.93c0.33-0.12,0.67-0.23,1-0.35c-4.41-3.91-8.22-8.27-11.34-12.95c-3.1-4.66-5.51-9.63-7.17-14.76
		c-0.94-2.91-1.63-5.88-2.06-8.87c-0.09-0.6-1.22-0.63-1.18,0.01c0.51,7.1,0.72,14.22,0.15,21.32c-0.56,6.97-1.89,13.92-4.53,20.58
		c-1.48,3.75-3.39,7.37-5.75,10.81c0.36,0.12,0.72,0.24,1.08,0.37c2.49-6.73,0.8-13.78-0.41-20.56c-0.61-3.4-1.08-6.81-0.97-10.25
		c0.1-3.32,0.68-6.63,1.69-9.85c1.16-3.66,2.88-7.19,5.14-10.49c0.38-0.55-0.59-0.98-1.02-0.48c-4.25,4.91-4.8,11.17-8.41,16.34
		c-3.37,4.83-9.4,7.63-14.94,10.52c-3.16,1.65-6.29,3.4-8.91,5.61c0.33,0.15,0.66,0.31,0.99,0.46c1.07-6.65,2.23-13.53,5.81-19.64
		c1.77-3.02,4.16-5.79,7.23-8.01c3.09-2.24,6.76-3.89,10.6-5.09c4.4-1.36,9.04-2.17,13.71-2.64c0.74-0.08,0.75-1.04-0.01-0.97
		c-8.36,0.85-16.96,2.71-23.71,7.05c-3.32,2.13-6,4.82-8.01,7.85c-1.98,3-3.33,6.25-4.31,9.56c-1.14,3.83-1.82,7.74-2.45,11.65
		c-0.07,0.44,0.54,0.85,0.99,0.46c4.71-3.98,10.95-6.32,16.33-9.59c2.67-1.62,5.13-3.47,6.97-5.76c2-2.48,3.16-5.34,4.27-8.15
		c1.25-3.18,2.48-6.42,4.87-9.18c-0.34-0.16-0.68-0.32-1.02-0.48c-4.01,5.85-6.37,12.42-6.9,19.11c-0.27,3.45,0.03,6.88,0.59,10.3
		c0.57,3.48,1.34,6.94,1.73,10.44c0.44,3.86,0.38,7.79-1,11.53c-0.19,0.53,0.75,0.84,1.08,0.37c4.22-6.15,6.97-12.89,8.59-19.8
		c1.65-7.01,2.2-14.16,2.18-21.29c-0.01-4.04-0.2-8.08-0.49-12.11c-0.39,0-0.79,0.01-1.18,0.01c0.77,5.41,2.36,10.73,4.72,15.81
		c2.35,5.06,5.44,9.89,9.21,14.33c2.12,2.5,4.46,4.89,6.98,7.12c0.38,0.34,0.96,0.04,1-0.35c0.73-5.94-0.03-11.99-2.1-17.71
		c-2.07-5.72-5.44-11.12-9.92-15.82c-2.52-2.64-5.38-5.06-8.55-7.17C1496.24,208.55,1495.41,209.24,1496,209.63L1496,209.63z"/>
	<path class="st13" d="M1510.69,246.46c1.19,3.53,2.4,7.09,2.7,10.76c0.29,3.54-0.48,6.97-2.15,10.24
		c-1.58,3.09-3.76,5.95-6.02,8.72c-2.38,2.92-4.88,5.76-7.53,8.52c-2.61,2.72-5.34,5.37-8.18,7.92c-2.53,2.27-5.14,4.48-7.52,6.86
		c-2.28,2.28-4.35,4.73-5.74,7.47c-1.43,2.82-2,5.85-1.61,8.88c0.83,6.53,5.19,12.14,7.96,18.15c2.3,4.98,3.86,11.23,0.73,16.23
		c-3.54,5.64-11.62,6.28-17.63,9.3c-2.7,1.36-5.23,3.24-6.29,5.76c-1.12,2.68-0.1,5.5,1.94,7.67c4.35,4.63,12.22,6.58,19.12,6.11
		c3.57-0.24,7.05-1.11,10.15-2.6c3.5-1.67,6.46-3.96,9.71-5.92c12.57-7.57,28.33-9.79,43.08-12.89c1.8-0.38,3.61-0.75,5.38-1.19
		c1.57-0.4,3.15-0.96,4.13-2.09c1.14-1.31,1.37-3.06,1.72-4.6c0.4-1.76,0.73-3.53,1.01-5.3c0.56-3.58,0.8-7.18,0.95-10.79
		c0.16-3.53,0.32-7.09,1.2-10.56c1.65-6.48,6.38-11.77,10.79-17.16c4.24-5.18,8.22-10.97,8.26-17.39c0.02-2.96-0.94-5.86-2.94-8.34
		c-1.85-2.29-4.37-4.13-6.97-5.82c-2.69-1.75-5.5-3.39-7.98-5.35c-2.75-2.17-5.01-4.74-6.68-7.56c-1.73-2.91-2.63-5.98-3.2-9.17
		c-0.57-3.21-1.25-6.37-3.64-9.04c-4.32-4.82-11.65-7.9-18.65-9.16c-3.6-0.65-7.31-0.83-10.99-0.53c-0.75,0.06-0.75,1.03,0.01,0.97
		c7.54-0.61,15.21,0.86,21.62,4.16c3.17,1.63,6.21,3.71,8.07,6.42c1.97,2.87,2.15,6.25,2.82,9.43c1.26,5.89,4.86,11.39,10.19,15.47
		c4.87,3.73,11.27,6.42,14.8,11.21c4.08,5.54,2.25,12.33-1.05,17.81c-3.4,5.66-8.59,10.43-12.14,16.02
		c-1.82,2.86-3.1,5.88-3.75,9.06c-0.68,3.32-0.83,6.7-0.97,10.06c-0.16,3.57-0.42,7.13-1,10.68c-0.28,1.73-0.63,3.45-1.03,5.17
		c-0.38,1.61-0.63,3.53-2.4,4.55c-1.43,0.82-3.29,1.11-4.94,1.48c-1.87,0.41-3.74,0.81-5.62,1.19c-3.68,0.75-7.37,1.47-11.04,2.24
		c-7.2,1.52-14.38,3.27-21.07,5.97c-3.37,1.36-6.58,2.96-9.55,4.83c-3.15,1.98-6.13,4.21-9.67,5.74
		c-6.43,2.78-14.51,2.79-20.97,0.11c-3.14-1.3-6.16-3.34-7.44-6.11c-1.28-2.76-0.17-5.55,2.29-7.6c5.04-4.2,12.87-4.52,18.18-8.39
		c4.91-3.58,5.66-9.19,4.64-14.23c-1.23-6.06-5.13-11.32-7.75-16.99c-1.4-3.02-2.45-6.21-2.34-9.47c0.1-3.03,1.3-5.91,3.12-8.53
		c3.71-5.33,9.43-9.52,14.3-14.11c5.4-5.1,10.4-10.51,14.81-16.22c2.09-2.7,3.99-5.53,5.25-8.57c1.32-3.18,1.7-6.5,1.27-9.84
		c-0.43-3.39-1.53-6.68-2.63-9.95C1511.62,245.59,1510.49,245.86,1510.69,246.46L1510.69,246.46z"/>
</g>
<g class="st14">
	<path class="st15" d="M1250.5,627.41c0.73,3.32,1.08,6.69,1.06,10.06c-0.02,3.11-0.19,6.35-1.42,9.32
		c-1.05,2.52-3.1,4.88-6.15,5.96c-2.51,0.89-5.96,0.65-7.66-1.31c-0.91-1.05-0.91-2.31,0-3.36c0.77-0.9,2.24-1.59,3.56-1.07
		c-0.09-0.1-0.18-0.19-0.27-0.29c2.45,6.31-0.94,12.85-4.37,18.44c-3.88,6.33-7.94,12.58-11.92,18.87
		c-2.27,3.59-4.54,7.18-6.81,10.77c-0.35,0.55,0.67,1.04,1.02,0.49c4.24-6.7,8.48-13.41,12.72-20.11c2.06-3.26,4.17-6.5,6.17-9.79
		c1.86-3.06,3.6-6.23,4.53-9.57c0.45-1.62,0.72-3.28,0.68-4.94c-0.02-0.79-0.11-1.57-0.27-2.35c-0.08-0.42-0.19-0.83-0.32-1.24
		c-0.11-0.35-0.18-0.9-0.56-1.11c-1.21-0.67-2.98-0.23-4.03,0.43c-1.17,0.74-1.99,1.91-2.01,3.14c-0.04,2.72,3.48,4.41,6.42,4.49
		c3.48,0.1,6.61-1.78,8.52-4.03c2.29-2.69,2.94-6.08,3.2-9.29c0.31-3.69,0.16-7.4-0.44-11.07c-0.15-0.9-0.32-1.8-0.51-2.7
		C1251.5,626.54,1250.36,626.8,1250.5,627.41L1250.5,627.41z"/>
	<path class="st15" d="M1222.37,601.61c2.71,1.49,4.98,3.48,6.62,5.79c0.82,1.14,1.48,2.36,1.96,3.62c0.55,1.46,0.87,2.98,1.57,4.4
		c1.33,2.69,4.15,4.49,7.03,6.03c3.06,1.63,6.38,2.93,9.85,3.87c3.13,0.85,6.5,1.52,9.81,1.25c1.55-0.13,3.08-0.45,4.43-1.1
		c1.27-0.6,2.26-1.46,3.14-2.41c1.55-1.66,2.79-3.85,5.17-4.81c3.09-1.25,6.36,0.68,7.92,2.82c0.91,1.25,1.49,2.64,2.01,4.03
		c0.58,1.51,1.24,3.07,1.17,4.68c-0.05,1.29-0.74,2.57-2.12,3.26c-1.12,0.56-2.5,0.49-3.4-0.33c-0.81-0.73-1.08-1.84-0.94-2.8
		c0.18-1.19,1.11-2.19,2.15-2.98c2.38-1.82,5.6-2.76,7.76-4.79c1.05-0.99,1.74-2.16,1.88-3.48c0.14-1.3-0.27-2.61-0.99-3.76
		c-1.58-2.51-4.69-4.01-7.83-4.94c-3.54-1.04-7.33-1.57-11.09-1.63c-1.91-0.03-3.82,0.07-5.71,0.29c-1.96,0.22-3.88,0.61-5.8,0.99
		c-3.4,0.68-6.95,1.3-10.41,0.55c-1.47-0.32-2.89-0.88-3.99-1.75c-0.96-0.76-1.6-1.74-2.1-2.75c-0.97-1.94-1.51-4.15-3.23-5.77
		c-0.91-0.86-2.15-1.4-3.51-1.57c-1.88-0.23-3.87-0.08-5.75,0.06c-1.95,0.15-3.88,0.39-5.79,0.73c-0.74,0.13-0.43,1.07,0.31,0.93
		c1.99-0.36,4.01-0.61,6.05-0.74c1.01-0.07,2.03-0.1,3.04-0.12c0.92-0.01,1.86,0,2.75,0.23c2.54,0.66,3.44,2.98,4.24,4.83
		c0.95,2.19,1.98,4.33,4.44,5.67c2.73,1.49,6.21,1.74,9.38,1.4c3.93-0.41,7.68-1.54,11.62-1.88c3.88-0.34,7.83-0.16,11.63,0.57
		c3.42,0.65,7.07,1.66,9.49,3.86c2.18,1.99,2.91,4.99,0.87,7.23c-1.99,2.19-5.35,3.15-7.81,4.92c-1.14,0.82-2.18,1.86-2.6,3.07
		c-0.35,1.02-0.27,2.15,0.23,3.13c0.48,0.95,1.39,1.76,2.63,2.03c1.47,0.33,2.97-0.16,4.02-1.01c2.8-2.26,1.62-5.61,0.6-8.3
		c-1.03-2.71-2.33-5.61-5.42-7.17c-1.37-0.69-3-1.05-4.6-0.84c-1.34,0.17-2.54,0.77-3.51,1.54c-1.99,1.58-3.09,3.77-5.13,5.32
		c-2.4,1.82-5.85,2.05-8.94,1.72c-3.51-0.37-7-1.37-10.19-2.59c-1.67-0.64-3.29-1.37-4.84-2.18c-1.51-0.79-3.01-1.65-4.3-2.68
		c-1.3-1.04-2.24-2.25-2.81-3.66c-0.58-1.42-0.89-2.91-1.5-4.32c-1.11-2.56-2.89-4.9-5.2-6.84c-1.11-0.93-2.34-1.76-3.66-2.49
		C1222.33,600.42,1221.74,601.26,1222.37,601.61L1222.37,601.61z"/>
	<path class="st15" d="M1274.97,608.58c4.89-0.46,9.84-0.5,14.74-0.11c4.87,0.38,9.61,1.27,14.32,2.35
		c4.56,1.04,9.12,2.13,13.83,2.56c4.17,0.38,8.39,0.12,12.45-0.76c7.97-1.73,15.07-5.79,19.66-11.43c4.6-5.65,6.57-12.58,5.54-19.32
		c-0.58-3.82-1.74-7.72-0.01-11.46c1.44-3.12,4.22-5.66,5.88-8.69c0.87-1.6,1.57-3.39,0.95-5.14c-0.57-1.6-1.96-3-3.46-4.08
		c-2.92-2.11-6.87-3.28-10.77-3.07c-3.84,0.21-7.53,1.72-10.09,4.08c-1.34,1.24-2.29,2.68-3,4.23c-0.74,1.63-1.23,3.33-1.93,4.98
		c-0.63,1.48-1.49,2.9-2.77,4.08c-1.06,0.97-2.33,1.76-3.72,2.39c-2.91,1.33-6.19,2.02-9.39,2.72c-3.33,0.73-6.7,1.45-9.79,2.73
		c-2.97,1.24-5.44,3.08-7.57,5.16c-2.16,2.1-4.02,4.38-6.02,6.58c-1.9,2.08-3.97,4.15-6.58,5.66c-1.26,0.73-2.63,1.32-4.09,1.71
		c-0.72,0.19-0.41,1.13,0.31,0.93c6.26-1.7,10.08-6.33,13.77-10.52c1.92-2.18,3.89-4.36,6.33-6.17c2.44-1.82,5.33-3.01,8.44-3.86
		c3.24-0.89,6.6-1.46,9.85-2.31c3.02-0.78,6.03-1.82,8.39-3.6c1.28-0.97,2.32-2.14,3.07-3.42c0.9-1.55,1.45-3.2,2.05-4.84
		c0.59-1.61,1.26-3.22,2.41-4.63c1.04-1.27,2.42-2.36,3.98-3.18c3.24-1.7,7.18-2.22,10.89-1.36c1.86,0.43,3.62,1.17,5.11,2.19
		c1.49,1.02,2.94,2.36,3.47,3.92c0.58,1.7-0.33,3.51-1.25,5.02c-0.9,1.47-2.02,2.84-3.07,4.24c-1.04,1.38-2.03,2.81-2.69,4.35
		c-0.74,1.74-0.91,3.59-0.78,5.42c0.14,1.94,0.58,3.86,0.88,5.78c0.27,1.72,0.38,3.45,0.27,5.19c-0.22,3.3-1.18,6.58-2.81,9.6
		c-3.3,6.12-9.25,11-16.7,13.72c-3.65,1.34-7.61,2.14-11.6,2.32c-4.55,0.21-9.04-0.46-13.43-1.38c-4.54-0.95-9-2.13-13.6-2.86
		c-4.76-0.75-9.62-1.11-14.46-1.05c-2.33,0.03-4.67,0.15-6.99,0.37C1274.22,607.69,1274.21,608.66,1274.97,608.58L1274.97,608.58z"
		/>
	<path class="st15" d="M1173.68,531.34c-0.8-4.32-1.43-8.74-0.88-13.11c0.53-4.28,2.46-8.36,6.52-11.2
		c2.34-1.64,5.05-2.89,7.19-4.73c2.01-1.73,3.49-3.81,4.61-5.99c2.5-4.86,3.67-10.28,3.96-15.54c0.15-2.74,0.03-5.5-0.37-8.22
		c-0.4-2.78-1.05-5.56-0.89-8.36c0.12-2.13,0.8-4.15,2.24-5.93c1.2-1.49,2.84-2.74,4.69-3.68c3.73-1.9,8.45-2.65,12.69-1.52
		c2.57,0.68,4.62,2.17,7.06,3.08c2.29,0.86,4.73,0.98,7.08,0.22c4.38-1.41,7.44-4.73,11.91-5.98c2.61-0.73,5.34-0.41,7.95,0.15
		c2.73,0.58,5.41,1.39,8.23,1.65c1.33,0.12,2.67,0.09,3.99-0.13c0.74-0.12,0.43-1.06-0.31-0.93c-2.79,0.46-5.61-0.13-8.28-0.76
		c-2.7-0.64-5.45-1.39-8.29-1.39c-2.56,0-4.88,0.75-7.01,1.87c-2.04,1.07-3.87,2.37-5.9,3.45c-1.85,0.98-3.91,1.77-6.17,1.61
		c-2.91-0.2-5.24-1.95-7.73-3.01c-4.07-1.74-8.96-1.67-13.15-0.25c-4.17,1.42-7.74,4.12-9.29,7.65c-1.05,2.41-1.01,5.06-0.7,7.57
		c0.35,2.81,0.94,5.59,1.1,8.42c0.3,5.55-0.51,11.15-2.47,16.47c-0.86,2.34-1.98,4.62-3.62,6.67c-0.81,1.02-1.76,1.96-2.84,2.79
		c-1.14,0.88-2.42,1.63-3.69,2.39c-2.34,1.4-4.53,2.87-6.15,4.87c-1.41,1.74-2.35,3.73-2.92,5.77c-1.19,4.31-0.86,8.81-0.21,13.16
		c0.16,1.08,0.35,2.15,0.55,3.23C1172.65,532.21,1173.79,531.95,1173.68,531.34L1173.68,531.34z"/>
	<path class="st15" d="M1234.09,598.95c-13.34,2.93-28.34,2.18-40.6-3.27c-6.42-2.85-11.61-6.95-15.59-11.96
		c-4.43-5.58-7.52-11.79-11.78-17.46c-2.22-2.96-4.72-5.78-7.44-8.45c-2.72-2.66-5.76-5.04-8.66-7.55
		c-2.75-2.37-5.17-4.94-6.78-7.95c-1.52-2.83-2.33-5.92-2.54-9c-0.2-3.1,0.2-6.22,1.15-9.23c1.04-3.27,2.83-6.28,4.72-9.26
		c1.96-3.1,3.85-6.19,5.09-9.55c1.26-3.42,2.02-6.94,2.91-10.44c1.56-6.12,3.69-12.66,9.32-17.17c5.56-4.45,13.51-5.54,20.96-5.87
		c1.85-0.08,3.7-0.12,5.56-0.16c0.76-0.01,0.76-0.98,0-0.97c-7.58,0.13-15.67,0.34-22.49,3.38c-6.83,3.05-10.61,8.76-12.76,14.69
		c-2.53,6.96-3.1,14.34-6.82,21c-1.81,3.25-4.06,6.33-5.77,9.62c-1.53,2.95-2.51,6.05-2.92,9.24c-0.78,6.14,0.71,12.58,4.92,17.76
		c2.36,2.91,5.47,5.32,8.44,7.8c3.05,2.55,5.9,5.27,8.46,8.16c2.53,2.86,4.76,5.88,6.79,9c1.97,3.03,3.8,6.11,5.84,9.11
		c3.75,5.5,8.36,10.45,14.74,14.06c11.62,6.57,26.67,8.32,40.38,6.34c1.74-0.25,3.46-0.57,5.16-0.94
		C1235.13,599.73,1234.82,598.79,1234.09,598.95L1234.09,598.95z"/>
	<path class="st15" d="M1284.64,563.19c9.51,1.04,20.32,2.03,29.04-2.04c3.81-1.78,6.72-4.47,8.89-7.56
		c2.13-3.04,3.61-6.36,5.15-9.63c1.5-3.19,3.05-6.4,5.37-9.26c1.13-1.4,2.46-2.68,4.01-3.78c1.93-1.37,4.21-2.36,6.55-3.16
		c4.77-1.63,10-2.64,14.07-5.38c3.6-2.42,6.52-6.33,4.93-10.25c-1.09-2.69-3.89-4.4-6.88-5.62c-3.26-1.33-6.77-2.21-9.92-3.71
		c-1.47-0.7-2.86-1.55-3.91-2.65c-1.14-1.2-1.78-2.66-1.94-4.17c-0.37-3.42,1.12-6.79,1.97-10.1c0.81-3.15,1.22-6.68-1.27-9.42
		c-1.4-1.55-3.43-2.54-5.59-3.22c-2.37-0.74-5.04-1.26-7.57-1.38c-2.54-0.12-4.84,0.59-6.51,2.18c-1.5,1.42-2.42,3.17-3.4,4.84
		c-2,3.38-4.9,6.3-8.61,8.52c-3.72,2.23-8.07,3.73-12.63,4.33c-2.26,0.3-4.58,0.35-6.86,0.16c-2.77-0.23-5.44-0.91-8.13-1.43
		c-4.71-0.91-10.6-1.31-14.25,1.87c-3.46,3-2.86,7.47-4.96,11c-0.92,1.55-2.32,2.94-4.44,3.37c-0.74,0.15-0.42,1.08,0.31,0.93
		c4.68-0.93,6.04-5.3,6.92-8.64c0.5-1.92,1.04-3.98,2.56-5.56c1.49-1.54,3.76-2.33,6.09-2.58c5.42-0.58,10.59,1.57,15.91,2.01
		c4.49,0.37,9.1-0.22,13.29-1.58c4.2-1.36,8.06-3.47,11.13-6.19c1.52-1.35,2.85-2.85,3.93-4.47c1.08-1.62,1.87-3.36,3.1-4.91
		c1.31-1.65,3.12-2.82,5.6-2.9c1.43-0.04,2.85,0.18,4.24,0.43c1.14,0.2,2.27,0.44,3.37,0.75c2.21,0.62,4.38,1.59,5.73,3.21
		c1.08,1.3,1.52,2.82,1.54,4.38c0.03,3.37-1.48,6.61-2.22,9.89c-0.7,3.11-0.76,6.46,1.66,9.11c2.11,2.31,5.38,3.6,8.54,4.7
		c3.15,1.1,6.6,2.03,9.27,3.85c1.2,0.82,2.21,1.84,2.75,3.06c0.78,1.76,0.55,3.65-0.43,5.33c-1.05,1.8-2.75,3.33-4.68,4.52
		c-2.05,1.27-4.42,2.1-6.8,2.85c-4.75,1.49-9.73,2.71-13.59,5.57c-3.01,2.23-5.12,5.14-6.8,8.14c-1.76,3.14-3.11,6.41-4.72,9.59
		c-1.57,3.1-3.42,6.2-6.18,8.71c-3.13,2.85-7.28,4.63-11.8,5.47c-4.78,0.89-9.76,0.84-14.62,0.51c-2.4-0.16-4.79-0.4-7.18-0.66
		C1283.89,562.14,1283.89,563.11,1284.64,563.19L1284.64,563.19z"/>
	<path class="st15" d="M1283.15,585.65c-0.71-3.79,0.06-7.74,2.05-11.2c2.05-3.57,5.3-6.46,9.41-8.5c4.27-2.12,9.01-3.58,12.9-6.2
		c2.93-1.98,5.34-4.43,7.46-6.99c4.31-5.21,7.46-11.03,12.13-16.04c2.19-2.35,4.78-4.49,7.9-6c1.87-0.91,3.88-1.53,5.98-1.98
		c2.64-0.56,5.35-0.94,7.87-1.81c4.59-1.58,8.02-4.71,10.91-7.94c3.04-3.4,5.58-7.19,6.82-11.31c1.12-3.69,1.1-7.58-0.44-11.19
		c-1.43-3.34-4.1-6.37-7.89-8.14c-4.6-2.15-10.04-2.21-15.11-3.03c-5.1-0.82-10.04-2.24-14.64-4.22c-4.58-1.97-8.59-4.51-12.44-7.33
		c-3.4-2.49-7.01-5.15-11.52-6.16c-2.06-0.46-4.38-0.62-6.39,0.08c-2.15,0.75-3.17,2.41-3.27,4.27c-0.12,2.15,0.64,4.36,1.31,6.42
		c0.74,2.24,1.61,4.46,2.28,6.72c1.16,3.89,1.69,8.27-0.44,12.01c-1.09,1.91-2.86,3.28-4.82,4.59c-1.88,1.26-3.81,2.55-4.86,4.4
		c-0.89,1.58-1.13,3.43,0.02,4.96c0.4,0.53,1.42,0.04,1.02-0.49c-1.26-1.68-0.44-3.75,0.87-5.24c1.46-1.67,3.69-2.79,5.51-4.16
		c3.54-2.66,4.93-6.4,4.88-10.27c-0.06-4.34-1.88-8.44-3.26-12.58c-0.69-2.07-1.48-4.3-1.33-6.47c0.07-0.96,0.41-1.93,1.28-2.61
		c0.8-0.64,1.93-0.94,3.02-1.03c4.65-0.4,8.93,2.07,12.3,4.39c1.78,1.23,3.48,2.54,5.25,3.78c1.92,1.34,3.95,2.57,6.08,3.68
		c4.26,2.22,8.9,3.96,13.74,5.15c2.43,0.6,4.9,1.04,7.4,1.36c2.55,0.33,5.13,0.56,7.64,1.07c2.38,0.48,4.68,1.24,6.63,2.48
		c1.71,1.09,3.1,2.48,4.17,4.02c2.2,3.18,2.98,6.93,2.48,10.55c-0.58,4.18-2.74,8.12-5.5,11.63c-2.65,3.38-5.89,6.81-10.16,8.88
		c-4.38,2.12-9.68,2.13-14.25,3.9c-3.2,1.24-5.95,3.14-8.28,5.31c-4.94,4.62-8.14,10.26-12.04,15.45c-1.97,2.62-4.12,5.17-6.75,7.37
		c-1.34,1.12-2.8,2.15-4.4,3.03c-2.17,1.2-4.53,2.14-6.85,3.12c-2.26,0.95-4.51,1.95-6.53,3.23c-1.73,1.1-3.26,2.4-4.57,3.84
		c-2.67,2.94-4.34,6.46-4.86,10.1c-0.25,1.78-0.19,3.57,0.14,5.34C1282.13,586.52,1283.26,586.26,1283.15,585.65L1283.15,585.65z"/>
	<path class="st15" d="M1290.61,590c5.44-3.71,12.03-5.98,18.4-8.37c5.9-2.21,11.77-4.63,16.58-8.27c2.26-1.7,4.26-3.67,5.71-5.9
		c1.44-2.2,2.13-4.56,2.73-6.99c0.55-2.22,1.05-4.58,2.57-6.51c1.43-1.82,3.79-2.93,6.46-2.82c2.62,0.11,5.11,1.25,6.91,2.77
		c2.22,1.88,3.19,4.38,3.33,6.96c0.17,3.08-0.76,6.13-1.91,9.04c-1.2,3.03-2.61,6.01-4.1,8.96c-3.01,5.94-6.43,11.73-9.86,17.51
		c-1.4,2.36-2.9,4.77-5.22,6.62c-2.4,1.91-5.55,2.79-8.85,2.95c-3.42,0.17-6.82-0.29-10.18-0.72c-3.74-0.48-7.49-0.9-11.26-1.18
		c-7.5-0.56-15.14-0.55-22.52,0.8c-1.79,0.33-3.55,0.73-5.28,1.22c-0.71,0.2-0.41,1.14,0.31,0.93c7.31-2.06,15.08-2.54,22.77-2.25
		c3.89,0.15,7.77,0.49,11.63,0.92c3.6,0.41,7.19,0.99,10.81,1.21c3.37,0.2,6.87,0.03,9.95-1.19c3-1.19,5.17-3.33,6.83-5.65
		c1.86-2.59,3.34-5.37,4.92-8.07c1.74-2.97,3.45-5.95,5.07-8.97c1.62-3,3.15-6.03,4.54-9.11c1.34-2.97,2.65-6,3.24-9.14
		c0.55-2.92,0.48-6.03-1.04-8.76c-1.15-2.06-3.27-3.8-5.73-4.83c-2.35-0.98-5.19-1.37-7.7-0.55c-2.66,0.87-4.36,2.79-5.35,4.93
		c-1.04,2.26-1.39,4.69-2.08,7.03c-0.73,2.49-2.02,4.78-3.88,6.84c-3.84,4.24-9.49,7.2-15.18,9.52c-6.42,2.62-13.22,4.67-19.27,7.88
		c-1.45,0.77-2.84,1.6-4.17,2.51C1289.19,589.72,1290.03,590.4,1290.61,590L1290.61,590z"/>
	<path class="st15" d="M1231.82,577.12c-4.61-6.34-9.59-13.26-9.72-20.87c-0.11-6.88,4.62-12.61,8.18-18.55
		c1.71-2.86,3.16-5.84,3.65-9.02c0.3-1.96,0.1-3.93,0.11-5.9c0-1.85,0.31-3.63,1.13-5.36c1.48-3.12,4.3-5.71,7.27-7.94
		c1.53-1.15,3.12-2.26,4.79-3.26c1.67-1.01,3.54-1.88,5.67-1.9c3.45-0.02,6.32,2.03,8.9,3.66c1.4,0.88,2.81,1.76,4.38,2.44
		c1.8,0.78,3.74,1.18,5.77,1.28c4.52,0.22,9.09-0.94,13.58-0.13c4.11,0.74,7.59,3,10.27,5.58c5.09,4.89,7.5,11.55,6.72,17.93
		c-0.76,6.22-4.93,11.55-9.28,16.5c-4.26,4.85-9,9.65-11.31,15.41c-1.15,2.86-1.39,5.8-1.51,8.79c-0.11,2.83-0.1,5.85-1.48,8.5
		c-0.63,1.21-1.6,2.3-2.89,3.09c-0.6,0.37-0.01,1.21,0.59,0.84c2.9-1.8,4.1-4.54,4.56-7.41c0.48-3.02,0.29-6.07,0.68-9.09
		c0.8-6.2,5.15-11.47,9.49-16.38c4.42-5,9.25-10.03,11.36-16.06c2.21-6.31,1.04-13.31-2.87-19.01c-2.01-2.93-4.79-5.58-8.19-7.48
		c-1.77-0.99-3.74-1.76-5.84-2.14c-2.27-0.41-4.61-0.34-6.91-0.19c-2.29,0.15-4.59,0.39-6.89,0.29c-2.07-0.09-4.01-0.55-5.81-1.4
		c-3.13-1.48-5.66-3.7-8.89-5.04c-1.49-0.62-3.14-1.01-4.83-0.93c-2.19,0.11-4.13,0.97-5.86,2.02c-3.37,2.03-6.65,4.37-9.24,7.07
		c-1.28,1.34-2.39,2.77-3.19,4.34c-0.85,1.67-1.27,3.43-1.33,5.24c-0.07,2.04,0.19,4.09-0.05,6.13c-0.19,1.64-0.69,3.25-1.35,4.8
		c-2.67,6.3-7.98,11.68-9.87,18.22c-2.17,7.52,1.37,14.93,5.71,21.45c1.11,1.67,2.29,3.32,3.49,4.96
		C1231.19,578.14,1232.21,577.66,1231.82,577.12L1231.82,577.12z"/>
	<path class="st15" d="M1252.04,617.09c-5.54-3.75-10.11-8.41-13.5-13.6c-3.36-5.15-5.56-10.83-6.39-16.63
		c-0.47-3.29-0.5-6.63-0.07-9.93c-0.34,0.11-0.67,0.23-1.01,0.34c4.39,3.94,8.16,8.33,11.25,13.03c3.07,4.68,5.45,9.66,7.07,14.81
		c0.92,2.92,1.59,5.89,2,8.89c0.08,0.6,1.22,0.63,1.18,0c-0.46-7.1-0.63-14.23-0.01-21.32c0.61-6.96,1.98-13.91,4.66-20.55
		c1.51-3.74,3.44-7.35,5.82-10.77c-0.36-0.12-0.72-0.25-1.08-0.37c-2.53,6.72-0.89,13.78,0.27,20.57c0.58,3.4,1.03,6.82,0.9,10.26
		c-0.13,3.32-0.72,6.63-1.76,9.84c-1.18,3.66-2.93,7.17-5.21,10.46c-0.38,0.55,0.58,0.98,1.02,0.49c4.29-4.88,4.88-11.14,8.51-16.29
		c3.4-4.81,9.45-7.56,15.01-10.42c3.17-1.63,6.31-3.35,8.95-5.55c-0.33-0.16-0.66-0.31-0.99-0.47c-1.12,6.64-2.32,13.51-5.94,19.6
		c-1.79,3.01-4.2,5.76-7.28,7.96c-3.1,2.22-6.79,3.85-10.64,5.02c-4.41,1.34-9.06,2.11-13.72,2.55c-0.74,0.07-0.75,1.04,0,0.97
		c8.37-0.8,16.97-2.6,23.76-6.89c3.33-2.11,6.04-4.78,8.06-7.8c2-2.98,3.37-6.23,4.38-9.53c1.17-3.82,1.87-7.73,2.52-11.63
		c0.07-0.44-0.53-0.85-0.99-0.47c-4.74,3.95-10.99,6.25-16.39,9.48c-2.68,1.6-5.15,3.44-7.01,5.71c-2.02,2.47-3.2,5.32-4.33,8.12
		c-1.28,3.17-2.53,6.41-4.93,9.15c0.34,0.16,0.68,0.33,1.02,0.49c4.05-5.82,6.45-12.38,7.03-19.07c0.3-3.45,0.02-6.88-0.52-10.31
		c-0.55-3.48-1.29-6.95-1.67-10.45c-0.41-3.87-0.33-7.79,1.08-11.53c0.2-0.53-0.75-0.85-1.08-0.37c-4.26,6.12-7.05,12.85-8.72,19.75
		c-1.69,7-2.29,14.15-2.32,21.27c-0.02,4.04,0.15,8.08,0.41,12.11c0.39,0,0.79,0,1.18,0c-0.74-5.41-2.29-10.74-4.62-15.84
		c-2.32-5.08-5.37-9.93-9.11-14.4c-2.11-2.52-4.42-4.92-6.93-7.17c-0.38-0.34-0.96-0.04-1.01,0.34c-0.77,5.94-0.05,11.99,1.98,17.72
		c2.03,5.73,5.36,11.16,9.81,15.89c2.5,2.66,5.34,5.09,8.5,7.23C1251.78,618.17,1252.62,617.49,1252.04,617.09L1252.04,617.09z"/>
	<path class="st15" d="M1237.59,580.17c-1.17-3.53-2.36-7.11-2.63-10.78c-0.26-3.54,0.53-6.97,2.21-10.23
		c1.6-3.08,3.8-5.92,6.08-8.68c2.39-2.9,4.92-5.73,7.58-8.47c2.62-2.71,5.37-5.33,8.23-7.87c2.54-2.25,5.17-4.44,7.56-6.81
		c2.29-2.27,4.38-4.7,5.79-7.43c1.45-2.81,2.04-5.83,1.67-8.87c-0.79-6.53-5.11-12.17-7.84-18.21c-2.27-5-3.79-11.26-0.62-16.23
		c3.57-5.61,11.66-6.21,17.69-9.19c2.71-1.34,5.25-3.21,6.32-5.72c1.14-2.67,0.14-5.49-1.89-7.68c-4.32-4.65-12.17-6.66-19.08-6.24
		c-3.57,0.22-7.06,1.06-10.17,2.53c-3.51,1.65-6.49,3.92-9.75,5.86c-12.62,7.49-28.39,9.6-43.17,12.61
		c-1.8,0.37-3.61,0.72-5.39,1.16c-1.57,0.39-3.15,0.94-4.14,2.06c-1.14,1.3-1.39,3.05-1.75,4.59c-0.41,1.76-0.76,3.52-1.05,5.29
		c-0.58,3.58-0.84,7.17-1.03,10.78c-0.18,3.53-0.37,7.08-1.27,10.55c-1.69,6.47-6.45,11.72-10.91,17.09
		c-4.27,5.15-8.29,10.92-8.38,17.33c-0.04,2.96,0.9,5.87,2.88,8.36c1.83,2.3,4.34,4.15,6.93,5.87c2.68,1.77,5.48,3.43,7.95,5.4
		c2.74,2.19,4.98,4.78,6.63,7.6c1.71,2.92,2.59,6,3.14,9.2c0.55,3.22,1.2,6.38,3.58,9.06c4.29,4.85,11.6,7.98,18.59,9.28
		c3.6,0.67,7.31,0.88,10.98,0.61c0.75-0.06,0.76-1.02,0-0.97c-7.54,0.56-15.2-0.96-21.59-4.3c-3.15-1.65-6.19-3.76-8.03-6.47
		c-1.95-2.89-2.1-6.26-2.76-9.45c-1.22-5.9-4.79-11.42-10.08-15.54c-4.84-3.77-11.22-6.49-14.72-11.31
		c-4.04-5.56-2.17-12.34,1.17-17.8c3.44-5.63,8.66-10.38,12.25-15.94c1.84-2.85,3.14-5.86,3.81-9.04c0.71-3.32,0.87-6.69,1.04-10.05
		c0.18-3.57,0.46-7.13,1.07-10.67c0.29-1.73,0.65-3.45,1.06-5.16c0.39-1.61,0.66-3.52,2.43-4.53c1.43-0.82,3.29-1.09,4.95-1.44
		c1.87-0.4,3.75-0.78,5.63-1.15c3.68-0.73,7.38-1.42,11.05-2.17c7.21-1.47,14.4-3.18,21.11-5.83c3.38-1.33,6.6-2.92,9.59-4.77
		c3.17-1.96,6.16-4.17,9.7-5.68c6.45-2.74,14.53-2.7,20.97,0.03c3.13,1.32,6.13,3.38,7.4,6.16c1.26,2.77,0.13,5.55-2.34,7.58
		c-5.07,4.16-12.9,4.43-18.23,8.27c-4.93,3.55-5.72,9.16-4.73,14.2c1.19,6.07,5.06,11.35,7.64,17.04c1.38,3.03,2.41,6.22,2.28,9.49
		c-0.12,3.02-1.34,5.9-3.17,8.5c-3.74,5.3-9.5,9.45-14.39,14.01c-5.43,5.06-10.47,10.44-14.92,16.12c-2.11,2.69-4.03,5.5-5.31,8.53
		c-1.34,3.17-1.74,6.49-1.34,9.83c0.41,3.39,1.48,6.69,2.57,9.96C1236.65,581.03,1237.79,580.77,1237.59,580.17L1237.59,580.17z"/>
</g>
<path id="Path_4" class="st16" d="M310.51,798H187.44c-9.23-0.02-16.7-7.52-16.67-16.75c0,0,0,0,0,0v-91.46
	c-0.02-9.23,7.44-16.73,16.67-16.76c0,0,0,0,0,0h123.06c9.23,0.02,16.7,7.52,16.67,16.75c0,0,0,0,0,0v91.46
	C327.2,790.48,319.74,797.98,310.51,798C310.51,798,310.51,798,310.51,798z"/>
<line id="Line_7" class="st16" x1="297.89" y1="673.67" x2="297.89" y2="796.07"/>
<line id="Line_8" class="st16" x1="199.62" y1="674.96" x2="199.62" y2="797.36"/>
<line id="Line_9" class="st16" x1="172.69" y1="705.88" x2="199.62" y2="705.88"/>
<line id="Line_10" class="st16" x1="172.69" y1="735.51" x2="199.62" y2="735.51"/>
<line id="Line_11" class="st16" x1="172.69" y1="766.43" x2="199.62" y2="766.43"/>
<line id="Line_12" class="st16" x1="297.89" y1="705.62" x2="326.54" y2="705.88"/>
<line id="Line_13" class="st16" x1="298.98" y1="736.04" x2="326.54" y2="735.51"/>
<line id="Line_14" class="st16" x1="297.89" y1="766.46" x2="326.54" y2="766.43"/>
<path id="Path_5" class="st17" d="M239.36,754.84l29.49-19.33l-29.49-20.61V754.84z"/>
<g>
	<path id="Path_6" class="st18" d="M1405.82,419.43h-79.4c-5.96-0.01-10.77-4.85-10.76-10.81c0,0,0,0,0,0v-59.01
		c-0.01-5.96,4.8-10.8,10.76-10.81c0,0,0,0,0,0h79.4c5.96,0.01,10.77,4.85,10.76,10.81c0,0,0,0,0,0v59.01
		C1416.6,414.57,1411.78,419.41,1405.82,419.43C1405.82,419.43,1405.82,419.43,1405.82,419.43z"/>
	<text transform="matrix(1 0 0 1 1329.0769 393.9615)" class="st6 st19 st20">&lt;/&gt;</text>
</g>
</svg>
