<svg id="Layer_1" data-name="Layer 1" xmlns="http://www.w3.org/2000/svg" viewBox="0 0 384 344"><defs><style>.cls-1,.cls-7,.cls-8{fill:none;}.cls-2{fill:#fbe5d7;}.cls-3{fill:#f9f7f4;}.cls-4{fill:#e1cdc1;}.cls-4,.cls-6{opacity:0.74;}.cls-5{fill:#c69083;}.cls-6{fill:#945649;}.cls-7,.cls-8{stroke:#373636;stroke-linecap:round;stroke-width:2.97px;}.cls-7{stroke-miterlimit:10;}.cls-8{stroke-linejoin:round;}</style></defs><title>Untitled-2</title><path class="cls-1" d="M383.5,197.19l.5.29V154.75l-.5-.12Z" transform="translate(0 3)"/><path class="cls-1" d="M.5,88.08V-2.5H147.34c-.05-.17-.11-.33-.16-.5H0V141.07l.5,0Z" transform="translate(0 3)"/><path class="cls-2" d="M383.5,340.5H350.17c.15.16.3.33.44.5H384V197.48l-.5-.29Z" transform="translate(0 3)"/><path class="cls-3" d="M106.92,130.87c52-21.05,150,35.09,212,42.11,22.18,2.51,44.75,12.46,64.58,24.21V154.52c-22-5.62-53.4-14.4-98.08-28.16C191.44,97.43,158.25,30.07,147.34-3H.5V141C31.9,143.15,76.33,143.26,106.92,130.87Z" transform="translate(0 3)"/><path class="cls-2" d="M217.92,277c55,30,96,49,109,44,3.47-1.34,12.07,6.88,23.25,19.46H383.5V197.19c-19.83-11.72-42.4-21.65-64.58-24.15-62-7-160-63-212-42C76.33,143.39,31.9,143.29.5,141.11V262c14.33.39,33.88,4.33,60.42,15.08C144.92,311,162.92,247,217.92,277Z" transform="translate(0 3)"/><path class="cls-4" d="M284.85,127.08c44.67,13.72,76.09,22.48,98.07,28.09V-2H146.76C157.67,31,190.86,98.21,284.85,127.08Z" transform="translate(0 3)"/><path class="cls-5" d="M.5,340.5V262H0V341H350.61c-.14-.17-.29-.34-.44-.5Z" transform="translate(0 3)"/><path class="cls-6" d="M350.17,340.5C339,327.92,330.39,319.7,326.92,321c-13,5-54-14-109-44s-73,34-157,0C34.38,266.29,14.83,262.35.5,262V340.5Z" transform="translate(0 3)"/><path id="Path_4" data-name="Path 4" class="cls-7" d="M241.54,212.07H128.26a15.39,15.39,0,0,1-15.34-15.42h0V112.46A15.37,15.37,0,0,1,128.26,97H241.54a15.38,15.38,0,0,1,15.34,15.42h0v84.19a15.39,15.39,0,0,1-15.34,15.42Z" transform="translate(0 3)"/><line id="Line_7" data-name="Line 7" class="cls-7" x1="230.33" y1="100.63" x2="230.33" y2="213.29"/><line id="Line_8" data-name="Line 8" class="cls-7" x1="139.47" y1="101.82" x2="139.47" y2="214.47"/><line id="Line_9" data-name="Line 9" class="cls-7" x1="114.69" y1="130.28" x2="139.47" y2="130.28"/><line id="Line_10" data-name="Line 10" class="cls-7" x1="114.69" y1="157.55" x2="139.47" y2="157.55"/><line id="Line_11" data-name="Line 11" class="cls-7" x1="114.69" y1="186.01" x2="139.47" y2="186.01"/><line id="Line_12" data-name="Line 12" class="cls-7" x1="232.69" y1="130.28" x2="256.29" y2="130.28"/><line id="Line_13" data-name="Line 13" class="cls-7" x1="232.69" y1="157.55" x2="256.29" y2="157.55"/><line id="Line_14" data-name="Line 14" class="cls-7" x1="232.69" y1="186.01" x2="256.29" y2="186.01"/><path id="Path_5" data-name="Path 5" class="cls-8" d="M176.05,172.34l27.14-17.79-27.14-19Z" transform="translate(0 3)"/></svg>